<svg width="425" height="385" viewBox="0 0 425 385" fill="none" xmlns="http://www.w3.org/2000/svg">
<g filter="url(#filter0_ddi_281_33944)">
<path d="M287.53 64.7411L286.803 63.4825H285.35H139.472H138.019L137.292 64.7411L64.3578 191.075L63.6312 192.333L64.3578 193.592L137.292 319.916L138.019 321.175H139.472H285.35H286.803L287.53 319.916L360.464 193.592L361.191 192.333L360.464 191.075L287.53 64.7411Z" stroke="#FEE500" stroke-opacity="0.2" stroke-width="5.03402" shape-rendering="crispEdges"/>
</g>
<path d="M285.35 65.9995H139.472L66.5376 192.333L139.472 318.658H285.35L358.284 192.333L285.35 65.9995Z" fill="url(#paint0_linear_281_33944)" fill-opacity="0.75"/>
<g filter="url(#filter1_di_281_33944)">
  <path class="st2" fill="#C4F26E" d="M298,   247.4c-.81,.98-1.43,2.31-2.46,2.87-7.41,4.05-14.89,7.99-22.4,11.84-.82,.42-2.22,.47-3.02,.05-18.72-9.77-37.4-19.63-56.08-29.48-.46-.24-.85-.63-1.6-1.2,9.1-4.08,17.86-8.14,26.76-11.87,1.21-.5,3.24,.36,4.65,1.07,7.54,3.81,15,7.78,22.49,11.68,1.24,.64,2.53,1.2,4.86,2.29,0-9.38,.1-17.91-.06-26.43-.05-2.48,.7-3.73,3-4.72,7.65-3.29,15.19-6.82,22.99-10.36,.31,1.01,.59,1.92,.87,2.82v51.45Z"/>
  <path class="st2" fill="#C4F26E" d="M209.85,294.17c-.99-.64-1.93-1.38-2.98-1.92-11.76-6.05-23.55-12.06-35.3-18.12-1.62-.84-3.11-1.95-5.07-3.2,9.63-4.32,18.7-8.46,27.84-12.41,1.05-.45,2.66-.19,3.79,.27,3.08,1.25,6.1,2.69,9.05,4.25,2.47,1.3,4.79,1.36,7.32,.19,4.04-1.86,8.13-3.6,12.25-5.27,.94-.38,2.31-.7,3.11-.31,8.85,4.36,17.62,8.87,26.95,13.6-1.62,.88-2.75,1.53-3.91,2.1-12.96,6.39-25.93,12.77-38.88,19.17-.98,.48-1.89,1.09-2.83,1.64h-1.34Z"/>
  <path class="st2" fill="#C4F26E" d="M177.06,247.24c-1.76,.9-2.98,1.59-4.25,2.17-8.29,3.8-16.55,7.65-24.9,11.3-1.11,.49-2.85,.42-3.96-.11-6.11-2.94-12.08-6.17-18.19-9.13-1.72-.83-2.11-1.9-2.06-3.64,.25-9.13,.5-18.25,.53-27.38,0-2.8,1.17-4.11,3.6-5.2,41.76-18.83,83.49-37.73,125.22-56.63,3.43-1.55,6.82-3.19,10.84-5.07-7.15-4.15-13.75-7.99-20.73-12.04,.95-.62,1.58-1.14,2.3-1.47,8.9-4.06,17.79-8.15,26.76-12.05,1.21-.53,3.1-.48,4.3,.09,6.33,3,12.5,6.33,18.8,9.38,1.7,.82,2.12,1.85,2.09,3.63-.16,9.24-.27,18.48-.19,27.72,.02,2.47-.77,3.7-3.05,4.72-29.82,13.4-59.58,26.91-89.36,40.39-14.69,6.65-29.38,13.28-44.06,19.94-1.19,.54-2.34,1.16-3.88,1.93,6.78,3.84,13.22,7.48,20.22,11.44Z"/>
  <path class="st2" fill="#C4F26E" d="M150.96,153.63c0,9.17-.11,17.74,.07,26.3,.05,2.54-.84,3.7-3.08,4.65-7.77,3.28-15.45,6.77-23.74,10.44-.13-1.65-.3-2.9-.31-4.15-.07-16.69-.15-33.38-.1-50.07,0-1.03,.86-2.54,1.75-3.01,7.27-3.84,14.61-7.56,22.01-11.13,1.12-.54,2.94-.65,4-.11,18.43,9.34,36.8,18.81,55.18,28.28,.75,.39,1.39,1,2.52,1.83-1.52,.76-2.65,1.36-3.81,1.89-7.28,3.32-14.59,6.56-21.83,9.98-2,.94-3.58,.93-5.54-.17-7.84-4.41-15.79-8.65-23.7-12.95-.95-.52-1.93-.99-3.43-1.77Z"/>
  <path class="st2" fill="#C4F26E" d="M256.3, 118.1c-1.69,.85-3.03,1.56-4.4,2.19-8.1,3.66-16.24,7.23-24.28,11.01-1.94,.91-3.44,.84-5.24-.18-2.99-1.7-6.2-3.03-9.14-4.81-1.99-1.2-3.7-1.24-5.46,.13-7.54,5.87-14.83,5.37-22.7,.17-5.61-3.71-11.95-6.3-18.35-9.59,1.13-.75,1.78-1.29,2.51-1.67,12.99-6.81,25.97-13.65,39.02-20.32,1.25-.64,3.35-.85,4.52-.24,13.91,7.22,27.71,14.63,41.54,21.99,.56,.3,1.07,.71,1.98,1.32Z"/>
</g>
<defs>
<filter id="filter0_ddi_281_33944" x="0.316658" y="0.55732" width="424.188" height="383.543" filterUnits="userSpaceOnUse" color-interpolation-filters="sRGB">
<feFlood flood-opacity="0" result="BackgroundImageFix"/>
<feColorMatrix in="SourceAlpha" type="matrix" values="0 0 0 0 0 0 0 0 0 0 0 0 0 0 0 0 0 0 127 0" result="hardAlpha"/>
<feOffset/>
<feGaussianBlur stdDeviation="30.2041"/>
<feComposite in2="hardAlpha" operator="out"/>
<feColorMatrix type="matrix" values="0 0 0 0 0.996078 0 0 0 0 0.898039 0 0 0 0 0 0 0 0 0.1 0"/>
<feBlend mode="normal" in2="BackgroundImageFix" result="effect1_dropShadow_281_33944"/>
<feColorMatrix in="SourceAlpha" type="matrix" values="0 0 0 0 0 0 0 0 0 0 0 0 0 0 0 0 0 0 127 0" result="hardAlpha"/>
<feOffset dy="20.1361"/>
<feGaussianBlur stdDeviation="10.068"/>
<feComposite in2="hardAlpha" operator="out"/>
<feColorMatrix type="matrix" values="0 0 0 0 0 0 0 0 0 0 0 0 0 0 0 0 0 0 0.25 0"/>
<feBlend mode="normal" in2="effect1_dropShadow_281_33944" result="effect2_dropShadow_281_33944"/>
<feBlend mode="normal" in="SourceGraphic" in2="effect2_dropShadow_281_33944" result="shape"/>
<feColorMatrix in="SourceAlpha" type="matrix" values="0 0 0 0 0 0 0 0 0 0 0 0 0 0 0 0 0 0 127 0" result="hardAlpha"/>
<feOffset/>
<feGaussianBlur stdDeviation="25.1701"/>
<feComposite in2="hardAlpha" operator="arithmetic" k2="-1" k3="1"/>
<feColorMatrix type="matrix" values="0 0 0 0 0.996078 0 0 0 0 0.898039 0 0 0 0 0 0 0 0 0.05 0"/>
<feBlend mode="normal" in2="shape" result="effect3_innerShadow_281_33944"/>
</filter>
<filter id="filter1_di_281_33944" x="81.0522" y="80.4278" width="262.728" height="232.301" filterUnits="userSpaceOnUse" color-interpolation-filters="sRGB">
<feFlood flood-opacity="0" result="BackgroundImageFix"/>
<feColorMatrix in="SourceAlpha" type="matrix" values="0 0 0 0 0 0 0 0 0 0 0 0 0 0 0 0 0 0 127 0" result="hardAlpha"/>
<feOffset/>
<feGaussianBlur stdDeviation="25.1701"/>
<feComposite in2="hardAlpha" operator="out"/>
<feColorMatrix type="matrix" values="0 0 0 0 0.996078 0 0 0 0 0.898039 0 0 0 0 0 0 0 0 0.44 0"/>
<feBlend mode="normal" in2="BackgroundImageFix" result="effect1_dropShadow_281_33944"/>
<feBlend mode="normal" in="SourceGraphic" in2="effect1_dropShadow_281_33944" result="shape"/>
<feColorMatrix in="SourceAlpha" type="matrix" values="0 0 0 0 0 0 0 0 0 0 0 0 0 0 0 0 0 0 127 0" result="hardAlpha"/>
<feOffset/>
<feGaussianBlur stdDeviation="50.3402"/>
<feComposite in2="hardAlpha" operator="arithmetic" k2="-1" k3="1"/>
<feColorMatrix type="matrix" values="0 0 0 0 0.996078 0 0 0 0 0.898039 0 0 0 0 0 0 0 0 1 0"/>
<feBlend mode="normal" in2="shape" result="effect2_innerShadow_281_33944"/>
</filter>
<linearGradient id="paint0_linear_281_33944" x1="66.5376" y1="217.596" x2="357.732" y2="210.549" gradientUnits="userSpaceOnUse">
<stop stop-color="#1E1F0A"/>
<stop offset="1" stop-color="#052A17"/>
</linearGradient>
</defs>
</svg>
