<?xml version="1.0" encoding="UTF-8"?><svg id="Layer_2" xmlns="http://www.w3.org/2000/svg" viewBox="0 0 405.76 253.23"><defs><style>.cls-1{fill:#c4f26e;}.cls-2{fill:#101011;}.cls-3{fill:#f9f9f9;}</style></defs><g id="Layer_1-2"><g><g><path class="cls-1" d="M203.17,252.81c-.09,0-.17,0-.25,0h-.03s-.03,0-.03,0c-.08,0-.17,0-.25,0-1.18,0-2.53-.62-4.24-1.95-1.29-1-2.75-2.39-4.24-4.02-2.26-2.47-4.31-5.19-5.78-7.67l-.42-.7-.32,.75c-.88,2.07-1.63,3.62-2.18,4.5-.56,.89-1.45,1.4-2.45,1.4-1.78,0-3.54-1.58-5.7-5.12-1.19-1.94-2.37-4.31-3.34-6.67l-.28-.7-.43,.62c-1.35,1.93-2.5,3.39-3.24,4.14-.56,.56-1.27,.87-2.02,.87-2.03,0-3.57-2.02-4.99-6.56-.77-2.44-1.36-5.21-1.67-7.81l-.07-.6-.53,.29c-.41,.22-.87,.34-1.32,.34-.52,0-1.51-.16-2.32-1.25-1.29-1.73-1.68-5.4-1.79-8.19-.14-3.66,.2-7.27,.91-9.65,.8-2.68,3.53-4.51,7.67-7.28,3.54-2.37,8.39-5.62,14.08-10.73l.68-.61-.91-.1c-1.97-.22-3.51-1.14-4.33-2.57-.96-1.67-.83-3.82,.37-5.9l1.53-2.65c1.18-2.05,3.03-3.27,4.94-3.27,.21,0,.42,.01,.63,.04,.09,.01,.18,.03,.27,.04l.16-.81c-.06-.01-.13-.03-.19-.04-.29-.05-.6-.07-.9-.07-.19,0-.37,0-.56,.03-.82-.63-1.66-1.24-2.49-1.81-.59-.38-1.2-.57-1.82-.57-2.05,0-4,1.97-6.47,4.46l-.49,.49c-.28,.28-.56,.57-.84,.87-1.39,1.46-2.82,2.98-4.31,2.98-1.32,0-2.59-1.22-3.9-3.72l-.32-.61-.39,.57c-3.14,4.64-5.33,6.53-7.56,6.53-.36,0-.73-.05-1.12-.15-1.93-.49-2.93-2.46-3.43-4.02l-.22-.69-.48,.54c-4.45,4.96-7.59,8.09-9.87,9.86-1.88,1.45-3.39,2.13-4.74,2.13-.44,0-.88-.07-1.32-.21-1.45-.47-2.37-2.21-2.82-5.32-.06-.45-.12-.92-.16-1.4l-.07-.81-.61,.54c-3.7,3.25-7.63,5.4-11.39,6.22-1.19,.26-2.35,.39-3.46,.39-1.81,0-3.47-.36-4.55-.98-1.32-.76-1.73-2.81-1.29-6.44,.07-.6,.17-1.25,.3-1.93l.15-.85-.75,.41c-5.63,3.06-10.18,3.82-13.01,3.91-.22,0-.43,.01-.65,.01-3.39,0-6.31-.92-7.45-2.34-.58-.73-1.13-2.37,.88-8.12,.38-1.1,.83-2.25,1.32-3.44l.31-.75-.79,.2c-5.66,1.41-10.91,2.2-15.2,2.29-.27,0-.53,0-.79,0-4.11,0-7.15-.66-8.79-1.92-1.14-.87-1.38-1.84-1.38-2.51,0-1.73,.86-3.7,2.56-5.87,.11-.13,.21-.26,.31-.39l.58-.71-.92,.04c-.96,.04-1.91,.06-2.81,.06-4.75,0-8.69-.52-11.73-1.54-3.36-1.13-5.48-2.9-5.84-4.85-.26-1.43,.86-3.35,3.44-5.88,.49-.48,1.03-.98,1.61-1.49l.63-.55-.82-.16c-8.94-1.75-14.98-3.53-18.45-5.41-3.21-1.74-3.75-3.34-4.03-4.82l-.03-.18c-.25-1.26,.66-2.68,2.79-4.34,.24-.19,.48-.37,.71-.54l.65-.47-.76-.26c-6.85-2.33-11.57-4.57-14.44-6.85-2.69-2.14-3.21-3.92-3.37-5.38-.15-1.37,1.52-2.91,5.42-5,.74-.4,1.56-.81,2.42-1.22l.85-.41-.87-.35c-3.51-1.39-6.51-3.21-8.93-5.4-3.1-2.82-4.51-5.58-5.14-7.4-.79-2.25-.81-4.25-.06-5.34,.77-1.12,2.78-2.18,5.97-3.13,.51-.15,1-.29,1.47-.41l.88-.23-.76-.51c-6.97-4.67-9.38-9.33-10.16-12.41-.76-2.97-.27-5.28,.39-6.35,.65-1.08,2.52-1.74,5.86-2.09,.5-.05,1.03-.09,1.59-.13l.87-.05-.6-.64c-2.76-2.94-4.82-5.74-6.12-8.32-1.31-2.58-1.88-4.96-1.69-7.08,.21-2.4,1.39-4.01,2.33-4.65,.23-.16,.62-.42,2.83-.42,1.46,0,3.53,.12,6.15,.35,1.58,.14,3.32,.32,5.18,.53l.73,.08-.31-.67c-4.01-8.52-6.18-13.83-7.04-17.23-.88-3.49-.43-4.91,.41-6.82,.31-.71,1.11-1.06,2.43-1.06,1.19,0,2.63,.28,3.76,.53,2.56,.56,6.02,1.58,10.27,3.03,4.82,1.64,9.64,3.49,12.09,4.45l.76,.3-.21-.79c-1.74-6.39-2.58-11.05-2.57-14.24,0-3.02,.75-4.93,2.42-6.22,.29-.23,.67-.34,1.14-.34,.95,0,2.32,.43,4.31,1.36,2.03,.94,4.67,2.39,7.86,4.3,3.33,2,6.6,4.11,8.76,5.54l.61,.4,.03-.73c.17-4.6,.51-8.04,1.04-10.53,.59-2.77,1.44-4.38,2.65-5.08,.45-.26,.92-.38,1.44-.38,1.07,0,2.17,.55,3.12,1.08,1.54,.87,4.41,3.69,8.79,8.63,3.41,3.85,7.71,8.96,12.77,15.18,2.55,3.13,5.29,6.55,8.14,10.15l.12,.15c1.57,1.94,2.74,2.83,3.68,2.83,1.04,0,1.43-1.02,1.67-1.63,.04-.09,.07-.18,.1-.25,1.05-2.4,2.29-3.68,3.15-4.35-1.54,4.6-1.03,7.36-.39,9.27v.03s.02,.04,.02,.04c.19,.52,.42,1.08,.67,1.66l.27,.6c.67,1.42,1.51,2.94,2.5,4.49,3.04,4.77,9.04,12.29,20.36,21.02,15.24,11.75,20.29,21.51,24.75,30.11,2.11,4.08,4.1,7.92,7.03,11.78l.16,.21c.19,.26,.38,.51,.56,.76l.03,.05c2.63,3.55,4.86,8.37,6.28,13.57,1.21,4.44,1.76,4.48,2.09,4.48h0c.16,0,.32-.08,.42-.22,.22-.3,.17-.85,.06-1.23-.43-1.36-1.83-5.93-1.83-8.66,0-.62,.05-1.18,.13-1.68,.01,.2,.04,.4,.06,.61,.18,1.34,.9,1.48,1.2,1.48,1.08,0,2.11-1.62,2.11-3.34s-.28-2.88-.93-4.13c-.03-.05-.05-.09-.07-.12l-.2-.42c-.69-1.61-.89-3.87-.57-6.72,.44-3.91,1.72-7.59,1.8-7.81l.03-.08v-.02l.02-.07c.17-.61,.44-1.28,.88-2.23,.09-.18,.16-.32,.22-.42,0,.08,.01,.16,.01,.25,0,8.96,13.3,11.3,19.01,11.89,2.36,.13,5.77,.79,6.04,1.87h.8c.27-1.08,3.68-1.74,6.02-1.87,5.74-.59,19.03-2.94,19.03-11.9,0-.09,0-.17,.01-.25,.06,.1,.13,.24,.22,.42,.45,.95,.71,1.62,.89,2.23l.02,.07h0s.02,.09,.02,.09h0c.11,.33,1.36,3.92,1.8,7.81,.32,2.84,.13,5.11-.57,6.73l-.2,.41s-.04,.07-.06,.11c-.66,1.26-.93,2.5-.93,4.14,0,.82,.23,1.63,.64,2.29,.42,.67,.96,1.06,1.47,1.06,.3,0,1.02-.14,1.2-1.48,.03-.21,.05-.41,.06-.61,.08,.5,.13,1.06,.13,1.68,0,2.73-1.4,7.3-1.83,8.64v.04c-.12,.38-.17,.91,.05,1.21,.1,.14,.26,.22,.42,.22,.33,0,.88,0,2.1-4.48,1.41-5.21,3.64-10.03,6.28-13.57l.03-.05c.18-.25,.37-.5,.56-.76l.16-.21c2.93-3.85,4.92-7.7,7.03-11.77,4.46-8.62,9.51-18.37,24.76-30.12,11.32-8.73,17.32-16.25,20.36-21.02,.99-1.56,1.84-3.07,2.51-4.51l.27-.58c.26-.58,.48-1.13,.67-1.65l.02-.04v-.04c.66-1.92,1.16-4.68-.38-9.27,.86,.67,2.1,1.94,3.15,4.35,.03,.07,.06,.16,.1,.25,.23,.61,.62,1.63,1.67,1.63,.95,0,2.12-.9,3.68-2.83l.1-.13c2.88-3.63,5.62-7.04,8.17-10.17,5.07-6.23,9.36-11.33,12.77-15.18,4.38-4.94,7.26-7.76,8.79-8.63,.94-.53,2.05-1.08,3.12-1.08,.52,0,.99,.12,1.44,.38,1.22,.69,2.06,2.3,2.65,5.08,.53,2.49,.87,5.93,1.04,10.53l.03,.73,.61-.4c2.16-1.42,5.42-3.54,8.76-5.54,3.19-1.91,5.83-3.36,7.86-4.3,2-.93,3.37-1.36,4.31-1.36,.47,0,.85,.11,1.14,.34,1.67,1.28,2.42,3.2,2.42,6.22,0,3.19-.83,7.85-2.57,14.24l-.21,.79,.76-.3c2.44-.96,7.26-2.81,12.09-4.45,4.25-1.45,7.7-2.47,10.27-3.03,1.12-.25,2.57-.53,3.76-.53,1.32,0,2.12,.35,2.43,1.06,.85,1.91,1.3,3.33,.41,6.82-.86,3.4-3.03,8.71-7.04,17.23l-.31,.67,.73-.08c1.84-.21,3.63-.39,5.18-.53,2.62-.23,4.68-.35,6.15-.35,2.21,0,2.6,.26,2.83,.42,.94,.64,2.12,2.25,2.33,4.65,.19,2.11-.38,4.49-1.69,7.08-1.31,2.58-3.37,5.38-6.12,8.32l-.6,.64,.87,.05c.56,.04,1.09,.08,1.59,.13,3.34,.34,5.21,1.01,5.86,2.09,.65,1.08,1.14,3.39,.39,6.36-.79,3.08-3.19,7.73-10.16,12.41l-.76,.51,.88,.23c.47,.12,.96,.26,1.47,.41,3.19,.96,5.2,2.01,5.97,3.13,.75,1.09,.73,3.09-.06,5.34-.64,1.82-2.04,4.58-5.14,7.4-2.42,2.2-5.42,4.01-8.93,5.4l-.87,.35,.85,.41c.86,.41,1.67,.83,2.42,1.22,3.9,2.09,5.57,3.63,5.42,5-.16,1.46-.68,3.24-3.37,5.38-2.87,2.28-7.59,4.52-14.44,6.85l-.76,.26,.65,.47c.23,.17,.47,.35,.71,.54,2.12,1.66,3.03,3.08,2.79,4.34l-.03,.19c-.28,1.48-.82,3.07-4.03,4.82-3.48,1.89-9.51,3.66-18.45,5.41l-.82,.16,.63,.55c.58,.51,1.12,1.01,1.61,1.49,2.57,2.53,3.7,4.45,3.44,5.88-.36,1.95-2.48,3.72-5.84,4.85-3.03,1.02-6.98,1.54-11.73,1.54h0c-.9,0-1.85-.02-2.81-.06l-.92-.04,.58,.71c.1,.13,.21,.26,.31,.39,1.7,2.17,2.56,4.14,2.56,5.86,0,.67-.24,1.64-1.38,2.51-1.64,1.25-4.68,1.92-8.79,1.92-.26,0-.53,0-.79,0-4.29-.09-9.54-.88-15.2-2.29l-.79-.2,.31,.75c.49,1.19,.94,2.35,1.32,3.44,2.01,5.75,1.47,7.39,.88,8.12-1.14,1.42-4.07,2.34-7.45,2.34-.21,0-.43,0-.65-.01-2.83-.09-7.38-.85-13.01-3.91l-.75-.41,.15,.84c.12,.68,.22,1.33,.3,1.93,.44,3.63,.04,5.67-1.28,6.44-1.08,.62-2.74,.98-4.55,.98-1.11,0-2.28-.13-3.46-.39-3.75-.82-7.69-2.97-11.39-6.22l-.61-.54-.07,.81c-.04,.48-.1,.95-.16,1.4-.45,3.11-1.37,4.85-2.82,5.32-.44,.14-.87,.21-1.32,.21-1.35,0-2.86-.68-4.74-2.13-2.29-1.76-5.42-4.9-9.87-9.86l-.48-.54-.22,.69c-.5,1.56-1.5,3.53-3.43,4.02-.39,.1-.76,.15-1.12,.15-2.23,0-4.42-1.89-7.56-6.53l-.39-.57-.32,.61c-1.3,2.5-2.58,3.72-3.9,3.72-1.49,0-2.92-1.51-4.31-2.98-.28-.3-.56-.6-.84-.87l-.49-.49c-2.47-2.49-4.42-4.46-6.47-4.46-.62,0-1.23,.19-1.81,.56-.84,.57-1.68,1.18-2.5,1.82-.19-.02-.38-.03-.56-.03-.3,0-.61,.03-.9,.07-.06,0-.12,.02-.19,.04l.16,.81c.09-.02,.18-.03,.27-.04,.21-.03,.42-.04,.63-.04,1.91,0,3.76,1.22,4.94,3.27l1.53,2.65c1.2,2.08,1.34,4.23,.37,5.9-.83,1.44-2.37,2.35-4.33,2.57l-.91,.1,.68,.61c5.69,5.11,10.54,8.36,14.08,10.73,4.14,2.77,6.87,4.6,7.67,7.28,.71,2.38,1.05,5.99,.91,9.65-.1,2.78-.5,6.46-1.79,8.19-.81,1.09-1.8,1.25-2.32,1.25-.45,0-.91-.12-1.32-.34l-.53-.29-.07,.6c-.31,2.59-.91,5.37-1.67,7.81-1.43,4.54-2.97,6.56-4.99,6.56-.74,0-1.46-.31-2.02-.87-.73-.74-1.88-2.21-3.24-4.14l-.43-.62-.28,.7c-.96,2.36-2.15,4.73-3.34,6.67-2.16,3.54-3.92,5.12-5.7,5.12-1,0-1.89-.51-2.45-1.4-.55-.88-1.3-2.43-2.18-4.5l-.32-.75-.42,.7c-1.47,2.47-3.52,5.2-5.78,7.67-1.49,1.63-2.95,3.02-4.24,4.02-1.71,1.33-3.06,1.95-4.24,1.95Zm22.27-66.26l.77,.28,.04-.09-.77-.31s-.03,.08-.04,.12Zm-45.88,.28l.77-.28s-.03-.08-.04-.12l-.1-.26h-.89l.26,.66Z"/><path class="cls-3" d="M208.8,128.33c.49-.49,.98-.99,1.47-1.48,1.18-1.19,2.37-2.38,3.55-3.57,.67-.68,1.36-1.37,2.19-1.85,.33-.19,.68-.37,1.04-.53,.31,.7,.47,1.46,.45,2.26-.08,3.18-2.96,5.69-6.44,5.61-.8-.02-1.55-.17-2.25-.43Z"/><path class="cls-3" d="M196.96,128.33c-.7,.26-1.45,.42-2.25,.43-3.48,.08-6.37-2.43-6.44-5.61-.02-.8,.14-1.56,.45-2.26,.36,.16,.71,.34,1.04,.53,.83,.49,1.51,1.18,2.19,1.85,1.18,1.19,2.37,2.38,3.55,3.57,.49,.49,.98,.98,1.47,1.48Z"/></g><g><path class="cls-2" d="M405.37,73.44c.79-3.09,.26-5.53-.43-6.67-.73-1.22-2.64-1.92-6.17-2.28-.56-.06-1.1-.1-1.61-.13,2.79-2.97,4.87-5.8,6.19-8.42,1.34-2.65,1.93-5.11,1.73-7.3-.22-2.54-1.49-4.26-2.51-4.96-.47-.32-1.25-.85-9.25-.14-1.92,.17-3.8,.37-5.19,.53,4.01-8.52,6.21-13.91,7.06-17.3,.91-3.61,.42-5.15-.43-7.09-.79-1.78-3.66-1.42-6.65-.76-2.58,.57-6.04,1.59-10.31,3.05-4.72,1.61-9.4,3.4-12.1,4.46,1.74-6.43,2.59-11.13,2.58-14.35,0-3.16-.81-5.17-2.59-6.54-1.01-.78-2.71-.49-5.88,.97-2.05,.95-4.7,2.4-7.9,4.32-3.44,2.06-6.78,4.23-8.77,5.55-.17-4.61-.51-8.1-1.05-10.6-.62-2.9-1.53-4.6-2.85-5.35-1.63-.92-3.35-.21-4.96,.7-1.57,.89-4.48,3.74-8.9,8.72-3.42,3.86-7.72,8.97-12.78,15.19-2.88,3.54-5.68,7.04-8.14,10.15-.04,.05-.08,.1-.12,.15-3.82,4.72-4.35,1.96-4.75,1.04-1.76-4.04-4.11-5.02-4.33-5.22,0,0,0,0-.01,0,1.9,4.92,1.57,7.95,.8,10.21,0,0,0,.01,0,.02-.18,.48-.39,1.03-.67,1.65-.02,.06-.05,.11-.07,.16-.06,.13-.12,.26-.18,.38,0,.01,0,.02-.02,.04-.59,1.25-1.39,2.74-2.48,4.46-3.02,4.74-8.99,12.22-20.26,20.91-15.31,11.81-20.39,21.61-24.86,30.25-2.08,4.01-4.09,7.89-7,11.72-.06,.07-.11,.14-.16,.21-.2,.26-.39,.51-.57,.77-.01,.01-.02,.03-.03,.04-2.42,3.27-4.82,8.08-6.35,13.71-1.53,5.64-2.08,4.26-1.78,3.26,0,0,0,0,0-.01,.49-1.54,1.85-6.01,1.85-8.77,0-3.36-1.4-5.14-1.4-5.14,0,0,.71,1.64,.38,4.02-.33,2.38-2.49,.6-2.49-1.81,0-1.53,.24-2.71,.88-3.94,.02-.04,.05-.08,.07-.13l.2-.43c.84-1.94,.88-4.5,.61-6.94-.45-4-1.75-7.71-1.83-7.91,0,0,0,0,0,0l-.03-.12c-.2-.71-.51-1.43-.91-2.3-.83-1.77-1.02-.5-1.02,0,0,8.43-12.31,10.83-18.65,11.49,0,0-5.93,.32-6.39,2.18-.47-1.86-6.4-2.18-6.4-2.18-6.33-.66-18.65-3.05-18.65-11.49,0-.5-.19-1.77-1.02,0-.4,.87-.71,1.59-.91,2.3l-.03,.12s0,0,0,0c-.07,.21-1.38,3.91-1.83,7.91-.28,2.44-.23,5,.61,6.94l.2,.43s.05,.08,.07,.13c.64,1.23,.88,2.41,.88,3.94,0,2.41-2.16,4.19-2.49,1.81-.33-2.38,.38-4.02,.38-4.02,0,0-1.4,1.78-1.4,5.14,0,2.75,1.36,7.23,1.85,8.77,0,0,0,0,0,.01,.3,1-.25,2.38-1.78-3.26-1.53-5.64-3.92-10.44-6.35-13.71,0-.01-.02-.03-.03-.04-.18-.26-.37-.51-.57-.77-.06-.07-.11-.14-.16-.21-2.91-3.83-4.92-7.7-7-11.72-4.48-8.65-9.55-18.45-24.86-30.25-11.28-8.69-17.25-16.17-20.26-20.91-1.09-1.71-1.9-3.21-2.48-4.46,0-.01-.01-.02-.02-.04-.06-.12-.12-.25-.18-.38-.02-.05-.05-.11-.07-.16-.28-.62-.49-1.17-.67-1.65,0,0,0-.01,0-.02-.77-2.26-1.1-5.29,.81-10.22,0,0,0,0-.01,.01-.22,.2-2.58,1.18-4.33,5.22-.39,.91-.93,3.68-4.75-1.04-.04-.05-.08-.1-.12-.15-2.46-3.11-5.27-6.61-8.14-10.15-5.06-6.22-9.36-11.33-12.78-15.19-4.41-4.98-7.32-7.83-8.9-8.72-1.61-.91-3.32-1.62-4.96-.7-1.32,.75-2.23,2.45-2.85,5.35-.54,2.5-.89,5.98-1.05,10.6-2-1.32-5.34-3.49-8.77-5.55-3.19-1.92-5.85-3.37-7.9-4.32-3.17-1.47-4.87-1.75-5.88-.97-1.78,1.37-2.58,3.38-2.58,6.54,0,3.21,.84,7.92,2.58,14.35-2.7-1.06-7.38-2.85-12.1-4.46-4.27-1.46-7.73-2.48-10.31-3.05-2.99-.66-5.86-1.02-6.65,.76-.86,1.93-1.35,3.48-.43,7.09,.86,3.4,3.05,8.78,7.06,17.3-1.39-.16-3.28-.36-5.19-.53-8-.71-8.78-.18-9.25,.14-1.02,.69-2.29,2.41-2.51,4.96-.2,2.19,.39,4.64,1.73,7.3,1.32,2.62,3.4,5.45,6.19,8.42-.51,.03-1.05,.08-1.61,.13-3.53,.36-5.43,1.07-6.17,2.28-.69,1.14-1.22,3.58-.43,6.67,.83,3.25,3.33,7.95,10.33,12.65-.47,.12-.97,.26-1.48,.42-3.33,1-5.35,2.08-6.19,3.29-.82,1.2-.82,3.33,.01,5.71,.65,1.87,2.09,4.69,5.25,7.57,2.46,2.24,5.5,4.07,9.05,5.48-.75,.36-1.59,.79-2.43,1.24-4.12,2.21-5.8,3.82-5.63,5.41,.17,1.55,.72,3.43,3.52,5.66,2.89,2.3,7.67,4.57,14.56,6.92-.24,.17-.48,.35-.73,.55-2.26,1.77-3.22,3.32-2.94,4.74,.01,.06,.02,.12,.04,.18,.3,1.58,.87,3.28,4.23,5.11,3.51,1.9,9.6,3.69,18.57,5.45-.51,.45-1.06,.96-1.62,1.51-2.71,2.67-3.84,4.65-3.55,6.25,.39,2.1,2.62,3.99,6.12,5.16,3.67,1.24,8.6,1.74,14.69,1.5-.11,.13-.22,.26-.32,.4-1.76,2.24-2.65,4.3-2.65,6.12,0,.76,.27,1.87,1.54,2.84,1.83,1.4,5.23,2.08,9.84,1.99,4.34-.09,9.59-.88,15.29-2.3-.41,.99-.89,2.2-1.33,3.46-2.05,5.88-1.51,7.64-.81,8.52,1.24,1.54,4.24,2.5,7.77,2.5,.22,0,.44,0,.66-.01,2.99-.1,7.57-.9,13.2-3.96-.11,.61-.22,1.27-.3,1.95-.47,3.81,0,5.99,1.49,6.84,1.49,.86,4.46,1.48,8.3,.64,3.85-.84,7.81-3.01,11.57-6.32,.04,.45,.09,.93,.16,1.42,.47,3.28,1.49,5.13,3.1,5.65,.48,.16,.96,.24,1.45,.24,1.47,0,3.04-.71,4.99-2.22,2.31-1.79,5.41-4.88,9.93-9.91,.55,1.72,1.63,3.76,3.72,4.29,2.8,.71,5.27-.86,9.12-6.55,3.81,7.31,6.96,2.72,9.71-.04,3.3-3.32,5.7-5.96,8.26-4.33,1.01,.69,1.91,1.36,2.6,1.9,.1-.01,.19-.02,.28-.03-2.08,.18-3.83,1.64-4.88,3.46l-1.53,2.65c-1.28,2.21-1.41,4.51-.37,6.31,.9,1.55,2.56,2.54,4.64,2.77-5.67,5.09-10.48,8.31-14.03,10.69-4.21,2.82-7,4.68-7.84,7.5-.72,2.42-1.06,6.08-.93,9.79,.11,2.84,.52,6.61,1.87,8.42,.92,1.23,2.05,1.42,2.65,1.42,.52,0,1.04-.14,1.52-.39,.31,2.58,.9,5.39,1.69,7.88,1.49,4.74,3.15,6.85,5.39,6.85,.85,0,1.67-.35,2.31-1,.77-.77,1.92-2.25,3.28-4.19,.97,2.37,2.14,4.73,3.36,6.73,2.25,3.68,4.11,5.32,6.06,5.32,1.14,0,2.16-.58,2.79-1.59,.56-.9,1.34-2.5,2.21-4.56,1.47,2.47,3.52,5.21,5.83,7.73,1.5,1.65,2.99,3.05,4.29,4.07,1.79,1.39,3.21,2.03,4.49,2.03,.1,0,.19,0,.29-.01,.09,0,.19,.01,.28,.01,1.28,0,2.7-.65,4.49-2.03,1.3-1.01,2.79-2.42,4.29-4.07,2.31-2.52,4.37-5.26,5.83-7.73,.87,2.05,1.65,3.65,2.21,4.56,.63,1.01,1.65,1.59,2.8,1.59,1.94,0,3.81-1.64,6.05-5.32,1.22-1.99,2.4-4.35,3.37-6.73,1.36,1.94,2.52,3.42,3.28,4.19,.63,.64,1.46,1,2.31,1,2.24,0,3.89-2.11,5.39-6.85,.78-2.49,1.38-5.3,1.69-7.88,.48,.26,1,.39,1.52,.39,.59,0,1.73-.18,2.65-1.42,1.35-1.81,1.76-5.58,1.87-8.42,.14-3.7-.21-7.36-.93-9.79-.84-2.82-3.62-4.68-7.83-7.5-3.56-2.38-8.37-5.6-14.04-10.69,2.08-.24,3.75-1.22,4.65-2.77,1.04-1.8,.9-4.1-.37-6.31l-1.53-2.65c-1.05-1.82-2.79-3.28-4.88-3.46,.1,0,.19,.02,.28,.03,.7-.54,1.59-1.21,2.6-1.9,2.56-1.63,4.96,1.01,8.26,4.33,2.74,2.75,5.9,7.34,9.71,.04,3.86,5.69,6.32,7.26,9.13,6.55,2.09-.53,3.17-2.57,3.72-4.29,4.52,5.03,7.62,8.12,9.93,9.91,1.95,1.51,3.52,2.22,4.99,2.22,.49,0,.97-.08,1.45-.24,1.61-.52,2.63-2.37,3.11-5.65,.07-.49,.12-.97,.16-1.42,3.76,3.31,7.72,5.48,11.57,6.32,3.85,.84,6.81,.22,8.3-.64,1.48-.85,1.95-3.03,1.49-6.84-.08-.68-.19-1.35-.3-1.95,5.63,3.06,10.2,3.86,13.2,3.96,.22,0,.44,.01,.66,.01,3.53,0,6.54-.96,7.77-2.5,.7-.88,1.24-2.64-.81-8.52-.44-1.26-.92-2.48-1.33-3.46,5.7,1.42,10.95,2.21,15.29,2.3,4.61,.09,8.01-.6,9.84-1.99,1.27-.97,1.54-2.08,1.54-2.84,0-1.82-.89-3.88-2.64-6.12-.11-.14-.22-.27-.32-.4,6.08,.24,11.01-.27,14.69-1.5,3.5-1.18,5.73-3.06,6.12-5.16,.29-1.59-.84-3.58-3.55-6.25-.56-.55-1.12-1.06-1.62-1.51,8.97-1.76,15.06-3.55,18.57-5.45,3.37-1.83,3.94-3.53,4.24-5.11,0-.06,.02-.12,.03-.18,.28-1.42-.68-2.97-2.94-4.74-.24-.19-.49-.37-.73-.55,6.89-2.34,11.67-4.62,14.56-6.92,2.81-2.23,3.36-4.11,3.52-5.66,.17-1.58-1.51-3.2-5.63-5.41-.84-.45-1.68-.87-2.43-1.24,3.56-1.41,6.59-3.24,9.05-5.48,3.17-2.88,4.6-5.7,5.25-7.57,.83-2.38,.83-4.51,.01-5.71-.84-1.22-2.86-2.3-6.19-3.29-.51-.16-1.01-.3-1.48-.42,7-4.7,9.5-9.39,10.33-12.65Zm-195.63,65.62c3.81-.22,5.22-2.65,5.22-2.65-5.22,1.15-5.83-.51-5.83-.51,2.32,.5,3.68-.86,3.68-.86-1.13,0-2.23-.36-3.09-1.1-.63-.54-1.12-1.24-1.46-1.99-.24-.52-.41-1.08-.55-1.63,0-.03-.01-.06-.02-.09,1.09,.46,2.48,.84,4,.99,4.05,.38,8.56-3.24,8.65-6.97,.05-2.08-.37-3.18-.73-4.29,1.25-.34,2.57-.48,3.83-.18,.24,.06,.49,.14,.72,.24,2.89,1.19,.59,3.8-1.58,3.97,0,0,2.13,.62,4.45-1.14,0,0-.78,3.76-3.16,4.68,0,0,2.75-.39,4.17-2.28,0,0-.08,3.4-3.01,5.93,.06-.02,1.94-.83,3.76-3.12-1.42,5.54-6.33,12.89-14.36,12.89h-1.46c5.7-1.01,7.47-4.11,7.47-4.11-6.61,3.37-10.68,2.22-10.68,2.22Zm-.94-10.73c.49-.49,.98-.98,1.47-1.48,1.18-1.19,2.37-2.38,3.55-3.57,.67-.68,1.36-1.37,2.19-1.85,.33-.2,.68-.37,1.04-.53,.31,.7,.47,1.46,.45,2.26-.08,3.18-2.96,5.69-6.44,5.61-.8-.02-1.55-.17-2.25-.43Zm-11.97-19.16c5.07,.51,5.91,2.17,6.05,2.7,.14-.53,.98-2.19,6.04-2.7,17.19-1.43,19.55-8.79,19.55-8.79-.08,3.98-1.4,6.32-4.47,10.43-3.08,4.11-2.55-.47-2.55-.47-2.75,2.58-.82,4.03-4.38,6.35-3.56,2.32-2.35-2.38-2.35-2.38-2.63,2.16-1.23,4.74-4.27,6.71-2.98,1.94-.94-3.75-.87-3.96-1.36,.96-2.46,3.84-2.61,5.88-.14,2.02-2.69,3.52-4.1,3.54-1.41-.02-3.96-1.52-4.1-3.54-.15-2.04-1.25-4.91-2.61-5.88,.08,.21,2.12,5.9-.87,3.96-3.04-1.97-1.64-4.54-4.27-6.71,0,0,1.2,4.7-2.35,2.38-3.56-2.32-1.63-3.76-4.38-6.35,0,0,.53,4.58-2.55,.47-3.08-4.11-4.39-6.45-4.47-10.43,0,0,2.36,7.36,19.55,8.79Zm8.79,23.18c0,.84-.2,1.72-.34,2.54-.16,.91-.34,1.81-.55,2.71-.25,1.06-.54,2.12-1,3.1-.12,.26-.27,.53-.49,.73-.15,.14-.3,.16-.36,.29-.07-.14-.21-.16-.36-.29-.22-.2-.36-.47-.48-.73-.47-.98-.76-2.05-1.01-3.1-.21-.9-.39-1.8-.55-2.71-.14-.83-.34-1.7-.34-2.54,0-.9,2.09-2.26,2.74-2.31,.65,.04,2.74,1.41,2.74,2.31Zm-8.66-4.02c-.7,.26-1.46,.41-2.25,.43-3.48,.08-6.37-2.43-6.44-5.61-.02-.8,.14-1.56,.45-2.26,.36,.16,.71,.33,1.04,.53,.83,.49,1.51,1.18,2.19,1.85,1.18,1.19,2.37,2.38,3.55,3.57,.49,.49,.98,.98,1.47,1.48Zm-16.22,2.85c-2.93-2.52-3.01-5.93-3.01-5.93,1.42,1.89,4.17,2.28,4.17,2.28-2.38-.92-3.16-4.68-3.16-4.68,2.32,1.76,4.45,1.14,4.45,1.14-2.18-.17-4.48-2.78-1.58-3.97,.23-.1,.47-.18,.72-.24,1.26-.3,2.58-.16,3.83,.18-.37,1.11-.78,2.22-.73,4.29,.09,3.73,4.6,7.35,8.65,6.97,1.53-.15,2.91-.53,4-.99,0,.03-.01,.06-.02,.09-.14,.55-.31,1.12-.55,1.63-.34,.75-.83,1.46-1.46,1.99-.86,.74-1.96,1.1-3.09,1.1,0,0,1.36,1.36,3.68,.86,0,0-.61,1.66-5.82,.51,0,0,1.41,2.42,5.22,2.65,0,0-4.07,1.15-10.67-2.22,0,0,1.77,3.1,7.47,4.11h-1.46c-8.04,0-12.94-7.35-14.36-12.89,1.82,2.29,3.7,3.09,3.76,3.12Zm-5.22,47.51l1.53-2.65c.86-1.49,1.99-2.24,3.13-2.24s2.27,.75,3.13,2.24l.24,.42,.24-.42c.86-1.49,1.99-2.24,3.13-2.24s2.27,.75,3.13,2.24l.39,.67,.39-.67c.86-1.49,2-2.24,3.13-2.24s2.27,.75,3.13,2.24l1.53,2.65c1.25,2.16,.85,4.03-.77,4.9-.02,.01-.04,.02-.06,.03-3.37,1.13-7.89-.3-7.99-.33,2.16,1.92,4.53,2.34,6.17,2.29-.78,1.42-1.26,3.38-1.26,5.56,0,1.92,.37,3.68,.99,5.04-1.44-.61-3.47-1.78-5.4-4.03,.19,.26,3.08,4.8,7.04,6.24l.08,.06s.01,.01,.02,.02c0,0,0,0,.02,0,1.09,.76,1.81,2.02,1.81,3.45,0,2.31-1.87,4.18-4.18,4.18s-4.17-1.86-4.18-4.16v-.02c0-.55-.16-1.07-.43-1.62-.69-1.38-2.18-2.93-4.21-5.41-2.85-3.49-2.22-8.64-.84-9.06h-.01c.93-.37,1.85-1.13,2.4-2.55-.18,.1-4.43,2.53-7.18,0,0,0-.07,.84-1.2,.84h-.79c-3.45,0-4.86-2.44-3.13-5.42Zm4.47-7.36c.06,0,.12,0,.19,0,.12,0,.24,0,.36,.02-.18-.01-.37-.01-.55,0Zm67.6,34.11c1.14,3.84,.69,10.46-.47,13.79v.02s-.04,.07-.05,.1c0,0,0,.02,0,.02-.03,.07-.05,.14-.08,.2-.55,1.3-1.65,1.27-2.53,.96-.73-.25-1.32-.67-1.34-.69h0c-.64,7.92-3.95,18.05-5.86,16.11-.8-.8-2.37-2.85-4.44-5.95-.26-.4-.54-.81-.82-1.24-2.38,6.86-8.42,16.25-9.9,13.88-.63-1.02-1.76-3.42-3.15-6.98-.26-.67-.53-1.37-.81-2.12-3.31,9.17-12.75,17.88-15.24,17.18h0c-2.49,.7-11.93-8.01-15.24-17.18-.28,.75-.55,1.45-.81,2.12-1.39,3.56-2.52,5.97-3.15,6.98-1.48,2.37-7.52-7.02-9.9-13.88-.28,.43-.56,.85-.82,1.24-2.07,3.1-3.64,5.15-4.44,5.95-1.91,1.94-5.22-8.18-5.86-16.11-.02,0-.17,.12-.41,.26-.24,.14-.57,.31-.93,.43-.89,.3-1.99,.33-2.54-.96-.03-.06-.05-.13-.08-.2,0,0,0-.01,0-.02-.01-.03-.02-.07-.04-.1v-.02c-1.17-3.32-1.63-9.95-.49-13.79,1.17-3.91,9.63-6.46,22.05-17.88,.01-.01,.03-.02,.04-.04,.14,.47,.28,.99,.39,1.44,.18,.68,.37,1.42,.6,2.19-.01,.02-.03,.03-.04,.05-11.61,15.91-22.11,20.3-22.11,20.3,.44,8.07,.92,8.8,8.43,2.28,5.34-4.64,13.32-15.15,15.56-18.15,.36,.61,.73,1.16,1.08,1.66-5.74,11.48-19.43,25.55-19.43,25.55,3.23,15.83,4.06,9.64,10.71-.16,4.51-6.64,10.45-19.26,11.73-22.03,.28,.26,.57,.51,.84,.75,.14,.13,.28,.25,.42,.38-6.06,13.93-13.65,25.57-13.65,25.57,7.63,16.87,8.45,12.66,10.92,5.93,1.7-4.65,6.03-15.06,8.56-21.07-3.84,10.4-5.94,19.63-5.94,19.63,5.13,11.55,12.63,16.45,14.57,16.5,1.94-.05,9.43-4.95,14.56-16.5,0,0-2.11-9.22-5.94-19.63,2.52,6.01,6.86,16.42,8.56,21.07,2.46,6.73,3.28,10.94,10.92-5.93,0,0-7.59-11.64-13.65-25.57,.14-.13,.28-.25,.42-.38,.27-.24,.55-.49,.84-.75,1.28,2.77,7.22,15.39,11.73,22.03,6.65,9.8,7.48,15.99,10.71,.16,0,0-13.69-14.07-19.43-25.55,.35-.5,.72-1.05,1.08-1.66,2.24,3,10.22,13.51,15.56,18.15,7.51,6.52,7.99,5.78,8.43-2.28,0,0-10.5-4.39-22.11-20.3-.01-.02-.03-.04-.04-.05,.23-.77,.42-1.51,.6-2.19,.12-.45,.25-.96,.39-1.44,.01,.01,.03,.02,.04,.04,12.42,11.42,20.89,13.97,22.05,17.88Zm-18.9-29.4l1.53,2.65c1.72,2.99,.31,5.42-3.13,5.42h-.79c-1.14,0-1.2-.84-1.2-.84-2.75,2.53-7,.1-7.18,0,.55,1.42,1.47,2.18,2.4,2.55h0c1.38,.43,2.01,5.58-.84,9.07-2.03,2.48-3.52,4.03-4.21,5.41-.28,.55-.43,1.07-.43,1.62v.02c-.01,2.3-1.88,4.16-4.19,4.16s-4.18-1.87-4.18-4.18c0-1.43,.72-2.69,1.81-3.45,0,0,0,0,.01,0,0,0,.02-.01,.02-.02,.02-.02,.05-.04,.08-.06,3.96-1.44,6.85-5.98,7.04-6.24-1.93,2.25-3.96,3.43-5.4,4.03,.62-1.36,.99-3.11,.99-5.04,0-2.18-.48-4.15-1.26-5.56,1.63,.05,4.01-.37,6.17-2.29-.1,.03-4.62,1.46-7.99,.33-.02,0-.04-.02-.06-.03-1.62-.87-2.01-2.74-.76-4.9l1.53-2.65c.86-1.49,2-2.24,3.13-2.24s2.27,.75,3.13,2.24l.39,.67,.39-.67c.86-1.49,1.99-2.24,3.13-2.24s2.27,.75,3.13,2.24l.24,.42,.24-.42c.86-1.49,2-2.24,3.13-2.24s2.27,.75,3.13,2.24Zm-3.49-4.7c.12-.01,.24-.02,.36-.02,.06,0,.13,0,.19,0-.18,0-.37,0-.55,0Zm166-85.78l-2.89,1.67,3.28,.62c3.13,.59,8.17,2.07,9.06,3.36,.2,.29,.38,1.52-.31,3.49-.79,2.26-2.41,4.58-4.58,6.55-2.85,2.58-6.57,4.6-11.07,5.98l-3.27,1,3.15,1.32s2.3,.97,4.65,2.2c3.92,2.06,4.63,3.07,4.74,3.28-.18,1.56-.98,5.47-18.84,11.19l-2.7,.87,2.47,1.39s1.32,.75,2.6,1.74c1.77,1.38,2.11,2.18,2.09,2.36-.01,.06-.02,.14-.04,.2-.18,.96-.37,1.96-2.99,3.38-3.55,1.93-10.42,3.84-20.43,5.69l-2.75,.51,2.22,1.69s1.79,1.38,3.47,3.03c2.99,2.94,2.84,3.97,2.83,4.02-.16,.87-1.42,2.24-4.46,3.26-2.73,.92-7.86,1.87-16.84,1.2l-3.65-.27,2.73,2.43c1.21,1.08,4.35,4.43,4.35,7,0,.11,0,.44-.56,.87-2.61,1.99-11.68,2.4-25.45-1.38l-2.58-.71,1.12,2.42s1.21,2.63,2.22,5.47c1.8,5.1,1.29,6.23,1.26,6.29-1.11,1.37-9.09,3.94-20.84-3.48l-2.66-1.68,1.65,7.47c.87,3.91-.26,4.4-.26,4.41-1.37,1.07-3.15,1.1-6.53,.36-2.84-.62-7.29-2.44-12.35-7.53l-2.17-2.19,.05,3.09s.03,1.9-.26,3.83c-.38,2.63-1.07,3.52-1.41,3.63-.77,.25-1.81,.23-4.16-1.59-2.45-1.89-5.91-5.41-11.21-11.42l-1.88-2.12-.28,2.81c-.11,1.08-.79,4.26-2.4,4.67-.54,.14-1.54,.39-3.62-1.85-1.96-2.12-5.33-7.45-8.98-13.92-.18-.39-.36-.79-.53-1.18,0,0-6.04-9.17-6.04-19.26-.03-.62-.04-1.24-.04-1.86,0-.15,0-.3,0-.45,.02-1.8,.16-3.6,.39-5.39,.13-.96,.29-1.93,.48-2.88,.04-.22,.06-.83,.22-1.02-.27,.29-3.76,4.21-3.77,9.94,0,3.91,1.31,7.22,.28,13.29-.63,3.69-2.63,6.51-4.62,9.01-.61,.68-1.03,.61-1.25,.42-.19-.16-.12-.61,.22-1.23,0,0,0,0,0,0,.05-.1,.11-.19,.17-.29,3.07-5.27,5.97-10.34,2.38-19.96,.05,.22,2.84,13.12-3.19,14.5-6.01,1.38-1.18-5.63-1.07-5.78-.16,.13-6.06,5.28-3.72,7.84,2.37,2.58,.52,5.21-3.21,5.37-3.74,.16-4.51-3.17-2.58-6.39,0,0-4.6,3.17-2.05,7.87,1.91,3.55-5.8,7.32-9.74,3.2-.01-.02-.02-.03-.04-.04-.09-.08-.31-.32-.55-.69,0,0,0,0,0-.01-.04-.05-.07-.11-.11-.17-.83-1.36-1.71-4.15,1.52-7.77,1.89-2.12,1.48-4.74,.3-5.53-1.14-.77-.15-2.2-.09-2.29-.12,.07-2.49,1.44-1.32,3.14,1.19,1.75-.26,3.51-2.31,3.51s-4.13-1.79-2.52-3.82c1.61-2.02,1.89-4.24-2.1-5.31,0,0,2.93,1.37,1.53,3.07-1.4,1.69-4.93,3.5-1.34,6.98,3.57,3.46,5.01,5.39,3.3,8.16-3.67,5.3-12.38,1.31-10.36-2.44,2.54-4.71-2.05-7.87-2.05-7.87,1.93,3.22,1.15,6.55-2.58,6.39-3.74-.16-5.59-2.79-3.21-5.37,2.34-2.56-3.57-7.71-3.72-7.84,.11,.16,4.94,7.16-1.07,5.78-6.02-1.38-3.23-14.28-3.19-14.5-3.59,9.62-.69,14.69,2.38,19.96,.06,.1,.12,.2,.17,.29,0,0,0,0,0,0,.34,.62,.41,1.07,.22,1.23-.22,.18-.64,.26-1.25-.42-2-2.5-4-5.32-4.63-9.01-1.03-6.07,.28-9.37,.28-13.29,0-5.74-3.5-9.65-3.77-9.94,.15,.2,.17,.81,.22,1.02,.2,.95,.35,1.91,.48,2.88,.24,1.79,.37,3.59,.39,5.39,0,.77,0,1.54-.04,2.31,0,5.04-1.51,9.86-3.02,13.41-1.51,3.55-3.02,5.84-3.02,5.84-.18,.39-.35,.79-.53,1.18-3.65,6.47-7.02,11.8-8.98,13.92-2.07,2.24-3.08,1.99-3.62,1.85-1.61-.41-2.29-3.59-2.4-4.67l-.29-2.81-1.87,2.12c-5.31,6-8.77,9.52-11.22,11.42-2.35,1.82-3.39,1.83-4.16,1.59-.34-.11-1.03-1-1.41-3.63-.28-1.93-.26-3.82-.26-3.83l.05-3.09-2.17,2.19c-5.05,5.1-9.5,6.91-12.34,7.53-3.38,.74-5.17,.71-6.54-.36,0,0-1.13-.49-.26-4.41l1.65-7.47-2.66,1.68c-11.74,7.42-19.73,4.85-20.84,3.48-.03-.06-.54-1.2,1.26-6.29,1-2.84,2.2-5.44,2.22-5.47l1.12-2.42-2.58,.71c-13.77,3.78-22.84,3.36-25.45,1.38-.56-.43-.56-.76-.56-.87,0-2.57,3.14-5.93,4.35-7l2.73-2.43-3.65,.27c-8.97,.67-14.11-.28-16.84-1.2-3.04-1.02-4.31-2.4-4.46-3.26,0-.04-.16-1.08,2.83-4.02,1.68-1.65,3.45-3.01,3.47-3.03l2.22-1.69-2.75-.51c-10-1.85-16.88-3.76-20.43-5.69-2.62-1.42-2.8-2.42-2.98-3.38-.02-.07-.03-.14-.04-.2-.02-.18,.32-.98,2.09-2.36,1.27-.99,2.58-1.73,2.6-1.74l2.47-1.39-2.7-.87c-17.86-5.72-18.66-9.63-18.84-11.19,.11-.22,.82-1.22,4.74-3.28,2.35-1.23,4.63-2.19,4.65-2.2l3.15-1.32-3.27-1c-4.5-1.38-8.23-3.4-11.07-5.98-2.17-1.97-3.8-4.3-4.58-6.55-.69-1.97-.51-3.21-.31-3.49,.89-1.3,5.93-2.77,9.06-3.36l3.28-.62-2.89-1.67c-8.25-4.78-10.94-9.56-11.75-12.72-.67-2.61-.12-4.33,.15-4.77,0,0,.58-.73,4.38-1.11,2.12-.21,4.11-.2,4.13-.2l3.07,.02-2.2-2.14c-3.61-3.53-6.21-6.83-7.71-9.8-1.13-2.23-1.63-4.24-1.48-5.96,.18-1.97,1.14-2.88,1.38-3.08,.31-.08,1.8-.3,8.04,.26,3.58,.33,6.96,.75,6.99,.76l2.25,.29-.97-2.05c-9.25-19.42-8.8-21.51-7.65-24.13,.35-.08,1.58-.17,5.21,.73,2.56,.64,5.86,1.66,9.82,3.03,6.78,2.35,13.2,4.95,13.26,4.97l2.36,.96-.7-2.44c-4.42-15.42-3.45-19.08-1.65-20.57,.43-.01,2.72,.29,11.71,5.73,5.11,3.1,9.86,6.32,9.91,6.35l1.89,1.28,.05-2.28c.13-5.59,.47-9.64,1.06-12.38,.59-2.75,1.29-3.5,1.65-3.71,.45-.26,1.2-.04,2.52,.7,4.94,2.79,24.3,27.63,33.22,39.17,2.38,3.41,4.35,3.82,4.81,10.66,0,0,2.01-2.7,1.49-5.83,.26,.45,.53,.92,.83,1.42,2.01,3.28,5.33,7.77,10.68,13.05,.5,.49,1.02,1,1.57,1.51,.53,.5,1.08,1.01,1.64,1.52,.52,.47,1.06,.95,1.61,1.43,.57,.49,1.14,.98,1.74,1.48,.63,.53,1.27,1.06,1.93,1.59,.66,.53,1.34,1.07,2.05,1.61l.06,.05c.66,.51,1.3,1.01,1.91,1.51,.68,.54,1.33,1.08,1.96,1.61,.65,.55,1.28,1.09,1.88,1.63,.63,.56,1.24,1.12,1.83,1.67,.61,.58,1.21,1.15,1.78,1.72,.59,.6,1.17,1.19,1.71,1.77,.58,.61,1.13,1.22,1.66,1.83,.55,.63,1.08,1.25,1.58,1.87,.53,.65,1.04,1.3,1.52,1.94,.54,.72,1.05,1.42,1.54,2.13,.48,.69,.94,1.38,1.38,2.07,.46,.73,.9,1.44,1.33,2.16,.43,.73,.85,1.45,1.25,2.17,.42,.75,.83,1.51,1.22,2.25,.4,.75,.79,1.49,1.17,2.24,.15,.29,.3,.57,.45,.86,.24,.45,.47,.91,.71,1.36,.39,.75,.78,1.49,1.18,2.24,.41,.76,.83,1.52,1.26,2.28,.41,.72,.83,1.43,1.28,2.14,.49,.79,1,1.57,1.55,2.36,.46,.66,.95,1.32,1.46,1.99,.1,.13,.2,.25,.3,.38,.04,.04,.07,.09,.11,.14,0,0,.02,.02,.02,.02,.68,.87,1.31,1.69,1.89,2.47h0c4.47,6.14,5.37,9.77,5.89,12.47,.28,1.41,.45,2.56,.97,3.69,1.63,3.25,4.64,4.13,4.1,4.81-.72,.9-3.32-1.56-3.46-1.69,2.4,4.43,7.4,3.85,7.4,4.78,0,1.71-2.81,.42-2.92,.37,2.19,1.82,4.81,1.3,6.43,1.87,3.15,1.11,.43,1.91,.43,1.91,2.57,.43,2.61-.78,5.32-.33,2.71,.45-1.07,1.38-1.07,1.38,3.38,.49,4-1.23,5.58-1.23s-.55,1.23-.55,1.23c2.34,0,2.77-1.4,4.07-1.4s0,1.15,0,1.15c2.18-.15,2.89-1.01,3.07-1.3,0,0,0,0,0,0,0,0,0,0,0,0,.46,.99,1.36,1.46,1.81,1.49,.45-.03,1.34-.5,1.81-1.49,0,0,0,0,0,0,0,0,0,0,0,0,.18,.29,.89,1.14,3.07,1.3,0,0-1.3-1.15,0-1.15s1.72,1.4,4.06,1.4c0,0-2.14-1.23-.55-1.23s2.2,1.73,5.58,1.23c0,0-3.78-.92-1.07-1.38,2.71-.45,2.75,.76,5.32,.33,0,0-2.72-.79,.43-1.91,1.61-.57,4.24-.04,6.43-1.87-.11,.05-2.92,1.34-2.92-.37,0-.92,5-.35,7.4-4.78-.14,.13-2.74,2.6-3.46,1.69-.54-.68,2.47-1.56,4.1-4.81,.52-1.12,.69-2.28,.97-3.69,.52-2.7,1.42-6.33,5.89-12.46h0c.58-.79,1.2-1.61,1.89-2.47,0,0,.01-.02,.02-.02,.04-.05,.07-.1,.11-.14,.1-.13,.2-.25,.3-.38,.51-.66,1-1.32,1.46-1.99,.54-.79,1.06-1.57,1.55-2.36,.44-.71,.87-1.42,1.28-2.14,.43-.75,.85-1.51,1.26-2.28,.4-.74,.79-1.49,1.18-2.24,.24-.45,.47-.9,.71-1.36,.15-.29,.3-.57,.45-.86,.39-.74,.77-1.49,1.17-2.24,.39-.75,.8-1.5,1.22-2.25,.4-.72,.82-1.44,1.25-2.17,.43-.72,.87-1.44,1.33-2.16,.44-.68,.9-1.37,1.38-2.07,.49-.71,1-1.41,1.54-2.13,.48-.64,.99-1.29,1.52-1.94,.5-.62,1.03-1.24,1.58-1.87,.53-.6,1.08-1.21,1.66-1.83,.55-.58,1.12-1.17,1.72-1.77,.57-.57,1.16-1.14,1.77-1.72,.59-.55,1.2-1.11,1.83-1.67,.61-.54,1.24-1.08,1.89-1.63,.63-.53,1.28-1.07,1.96-1.61,.62-.5,1.26-1,1.91-1.51,.02-.02,.04-.03,.06-.05,.7-.54,1.38-1.08,2.05-1.61,.67-.53,1.31-1.06,1.93-1.59,.6-.5,1.18-.99,1.74-1.48,.55-.48,1.09-.96,1.61-1.43,.57-.51,1.11-1.02,1.64-1.52,.54-.51,1.06-1.02,1.57-1.51,5.34-5.27,8.66-9.77,10.67-13.05,.3-.49,.58-.96,.83-1.42-.52,3.13,1.49,5.83,1.49,5.83,.45-6.85,2.43-7.26,4.81-10.66,8.92-11.54,28.28-36.38,33.22-39.17,1.32-.74,2.07-.95,2.52-.7,.36,.21,1.06,.96,1.65,3.71,.59,2.74,.93,6.79,1.06,12.38l.06,2.28,1.88-1.28s4.8-3.25,9.91-6.35c8.99-5.44,11.27-5.74,11.71-5.73,1.8,1.49,2.77,5.15-1.65,20.57l-.7,2.44,2.36-.96c.06-.02,6.48-2.62,13.26-4.97,3.96-1.38,7.27-2.4,9.83-3.03,3.62-.9,4.85-.81,5.21-.73,1.15,2.62,1.59,4.71-7.66,24.13l-.97,2.05,2.25-.29s3.41-.43,6.99-.76c6.24-.57,7.72-.35,8.03-.26,.24,.2,1.21,1.11,1.38,3.08,.15,1.72-.34,3.73-1.48,5.96-1.5,2.97-4.09,6.26-7.71,9.8l-2.19,2.14,3.07-.02s2.01-.01,4.13,.2c3.8,.38,4.38,1.11,4.38,1.11,.27,.44,.82,2.16,.15,4.77-.81,3.17-3.51,7.95-11.76,12.72Z"/><path class="cls-2" d="M210.87,203.34c-1.69-.53-2.18-1.62-.92-2.04s4.33-2.66,4.33-2.66c-.38,2.42-1.72,5.23-3.41,4.7Z"/><path class="cls-2" d="M214.65,182.11s-1.87-3.05-2.85-3.88c-.97-.84-.08-1.55,1.68-1.34,1.77,.21,1.81,3.06,1.16,5.22Z"/><path class="cls-2" d="M222.06,181.85s-2.06-2.88-3.08-3.63c-1.02-.75-.18-1.54,1.58-1.49,1.77,.05,2.01,2.9,1.5,5.12Z"/><path class="cls-2" d="M228.76,181.68s-2.26-2.72-3.33-3.39c-1.07-.67-.3-1.53,1.46-1.62,1.76-.09,2.2,2.74,1.87,5.01Z"/><path class="cls-2" d="M204.47,167.21c.24,.37,.47,.61,.55,.69-.2-.21-.38-.44-.55-.69Z"/><path class="cls-2" d="M358.71,151.16c-.76,.33-2.06,.77-4.11,1.15-2.89,.55-6.37,.85-9.79,.85-1.34,0-2.63-.05-3.85-.14-1.17-.09-2.25-.22-3.19-.38h-.01c-.71-.12-1.37-.26-1.96-.41-2.6-.67-6-4.89-10.7-10.72-2.88-3.57-9.29-11.23-13.66-16.11,2-2.04,2.88-3.37,3.92-5.16,7.17,5.46,14.51,11.52,18.76,15.33,7.39,6.61,11.85,10.6,17.26,10.97,.67,.04,1.35,.07,2.05,.07,.2,0,.42,0,.65,0,1.95,1.81,3.59,3.41,4.64,4.56Z"/><path class="cls-2" d="M340.93,164.01c-.97,.23-2.66,.47-5.32,.47-5.83,0-12.68-1.11-16.68-2.69-.13-.05-.25-.1-.38-.15h0c-.75-.32-1.55-1.03-2.44-2.16l-.07-.09c-1.55-2-3.24-5.11-5.37-9.02-1.3-2.4-5.02-8.89-6.7-11.82,1.67-1.83,3.34-3.09,4.6-4.98,3.4,3.9,8.38,9.61,10.78,12.58,6.01,7.45,9.63,11.95,14.59,13.23,1.27,.33,2.69,.59,4.24,.78,1.13,1.5,2.08,2.83,2.75,3.84Z"/><path class="cls-2" d="M391.07,115.87c-.71,.71-2.24,1.88-5.16,3.37-3.46,1.77-7.73,3.39-11.72,4.44-1.08,.28-2.13,.53-3.12,.72-1.49,.29-2.85,.46-4.03,.53-.08,0-.15,0-.23,0-3.17,0-8.4-3.29-15.64-7.84-7.04-4.43-18.81-11.41-31.54-17.72,.48-1.79,.75-3.3,.87-4.57,6.84,2.72,30.97,12.67,40.56,16.54,10.9,4.4,19.28,6.77,27.13,3.04,1.14,.56,2.11,1.07,2.86,1.49Z"/><path class="cls-2" d="M376.54,133.29c-.99,.7-3.11,1.85-7.01,3.1-4.45,1.43-9.58,2.45-13.73,2.74h-.09c-.79,.06-1.55,.09-2.27,.09-.35,0-.7,0-1.02-.02-.18,0-.37-.02-.55-.03-2.87-.2-7.05-3.94-12.83-9.11-4.33-3.87-14.99-13.84-23.3-20.4,.84-1.79,1.55-3.43,2.14-4.94,11.14,5.84,23.13,14.69,29.38,18.62,8.9,5.6,14.27,8.98,19.57,8.98,.23,0,.43,0,.63-.02,1.93-.1,4.09-.42,6.43-.94,1.23,.85,2.08,1.48,2.66,1.93Z"/><path class="cls-2" d="M317.03,176.55c-.97,.2-1.99,.3-3.03,.3-4.35,0-9.19-1.79-13-4.8l-.25-.2c-.99-.8-1.87-1.66-2.61-2.55v-.02c-.18-.19-.32-.37-.45-.55l-.07-.09-.07-.08c-.46-.51-.89-1.03-1.27-1.55-.25-.39-.48-.86-.7-1.45-.25-.64-.48-1.37-.65-1.94v-.03s-.02-.03-.02-.03c-.96-2.91-2.23-7.91-2.87-10.62,2.48-1.29,7.18-3.13,10.19-5.34,6.64,17.43,11.76,19.93,11.87,19.99h0c.58,1.56,1.11,3.09,1.62,4.65,.2,.61,.39,1.21,.57,1.8,.13,.89,.45,1.74,.75,2.5Z"/><path class="cls-2" d="M295.37,182.51c-.15,0-.29,0-.44,0-2.46,0-5.1-.68-7.63-1.96-2.39-1.21-4.64-2.93-6.5-4.96-.78-.86-1.48-1.75-2.06-2.64h0c-4.26-5.54-5.27-12.28-5.95-15.69,2.76-.04,7.14-.19,12.44-1.74,.57,2.21,1.89,7.95,2.66,10.28,.19,.62,.47,1.54,.82,2.44,.42,1.07,.89,2.01,1.43,2.85l.02,.03,.03,.05s.07,.11,.13,.18c.51,.69,1.06,1.36,1.63,2,.79,1.02,1.69,2,2.68,2.93,.08,.53,.15,1.06,.22,1.58h0c.08,.57,.15,1.17,.24,1.92-.04,.93,.14,1.85,.29,2.67,0,.01,0,.02,0,.04Z"/><path class="cls-2" d="M398.18,92.8c-1.67,6.25-8.54,10.34-14.94,11.68-1.46,.31-2.94,.48-4.37,.52-.11,0-.24,0-.36,0h-.21c-.82,.08-1.66,.12-2.52,.12h-.03c-.65-.04-1.4-.16-2.27-.37-.71-.17-1.53-.39-2.65-.74l-.06-.02c-4.84-1.36-9.27-2.82-13.56-4.45-.54-.2-1.08-.41-1.6-.61-.37-.14-.73-.28-1.1-.42l-.06-.02-.06-.02c-4.64-1.5-9.41-3.34-14.02-5.11-.8-.31-1.61-.62-2.42-.93-.02,0-.04-.01-.06-.02-11.96-4.47-24.16-6.86-26.74-7.33,.18-.62,.46-1.27,.73-1.8,0,0,0,0,0,0,.35-.61,.63-1.16,.64-1.2,0,0,0,0,0,0,2.34,.37,4.77,.82,7.15,1.31,6.95,1.41,13.55,3.1,16.73,3.94,.05,.01,.09,.02,.14,.04,.07,.02,.14,.04,.21,.06,.5,.14,1.02,.28,1.54,.41,.06,.02,.09,.02,.09,.02,7.07,1.91,15.35,4.11,21.97,5.79,14.6,3.7,30,9.46,35.26-1.48,.52,.15,1.05,.27,1.54,.39,.31,.07,.69,.16,1.04,.26Z"/><path class="cls-2" d="M398.14,55.28c-1.41,2.68-3.73,5.28-6.51,7.32-1,.73-2.05,1.38-3.1,1.93-.75,.39-1.5,.73-2.22,1.01l-.09,.03-.09,.04c-.75,.36-1.5,.68-2.25,.96-.6,.18-1.32,.33-2.14,.44-.7,.09-1.51,.17-2.62,.24h-.03s-.03,0-.03,0c-4.78,.42-9.21,.62-13.56,.62h-.09c-.55,0-1.09,0-1.64,0-.38,0-.75,0-1.13,0h-.07s-.07,0-.07,0c-3.51,.17-7.06,.2-9.75,.2-1.51,0-3.06,0-4.55-.02-1.5,0-3.05-.02-4.58-.02-3.57,0-6.28,.05-8.81,.15-.78,.03-1.5,.07-2.19,.11,0,0-11.87,.9-19.96,1.89-.15-.46-.44-1.23-.76-1.84,3.21-.72,12.78-2.43,40.07-4.62,4.6-.37,9.74-.76,15.46-1.17,14.65-1.05,29.05-2.76,29.86-14.16,.54-.04,1.06-.11,1.55-.18,.32-.04,.63-.08,.91-.11,.22,2.33-.32,4.74-1.6,7.18Z"/><path class="cls-2" d="M313.4,77.93c3.99,.09,17.48,1,33.83,3.41,0,0,0,0,0,0,15.5,2.52,29.8,4.99,34.62,4.19,.81-.14,1.61-.31,2.38-.52l.1-.03,.1-.02c.54-.1,1.09-.22,1.64-.37,1.23-.32,2.47-.76,3.68-1.3,3.23-1.44,6.11-3.57,8.1-5.99,1.79-2.17,2.84-4.54,3.08-6.92-.31-.03-.64-.04-.91-.06-.59-.03-1.22-.07-1.85-.15-1.88,9.17-14.07,8.57-23.43,8.5-4.07-.03-15.76-1.05-27.68-2.2-.02,0-.05,0-.07,0-.68-.07-1.35-.13-2.03-.2-14.22-1.33-27.01-1.21-31.4-1,0,0,.15,1.21-.16,2.66Z"/><path class="cls-2" d="M384.6,39.89q-3.26,5.97-36.02,12.87c-14.52,3.06-38.45,11.92-38.45,11.92-.27-.34-.53-.66-.8-.99,.16-.08,21.33-10.57,50.52-17.65,19.92-4.83,20.19-8.8,23.46-12.99,3.26-4.19,4.93-9.17,4.93-9.17l1.91-.74c1.79,2.16-5.54,16.75-5.54,16.75Z"/><path class="cls-2" d="M361.18,24.73c-2.78,9.85-3.12,10.13-27.71,21.36-18.54,8.48-29.98,17.85-33.88,20.42,.08-.6,.05-1.2-.02-1.56,12.22-10.96,28.43-20.35,45.18-28.77,17.38-8.74,16.11-25.49,16.11-25.49,.55-.55,1.85-1.17,1.85-1.17,.75,1.17,1.54,4.28-1.54,15.21Z"/><path class="cls-2" d="M321.86,41c-8.52,6.31-21.19,17.05-24.2,19.97-.05-.54-.16-1.51-.45-2.04,6.38-7.41,23.6-21.29,32.34-28.82,9.36-8.06,5.7-23.58,5.7-23.58,.53-.68,1.32-1.23,1.32-1.23,.49,.68,1.17,2.88,1.35,13.91,.19,11.73-4.93,13.55-16.07,21.79Z"/><path class="cls-2" d="M278.03,109.81c-.67,.97-1.98,2.69-3.87,4.17-6.07,4.75-9.09,4.4-11.5,3.83-2.41-.57-5.82-1.71-5.82-1.71,1.95-2.37,2.05-5.05,2.05-5.05,13.32,2.79,17.33-2.61,17.33-2.61,0,0,.66,.53,1.81,1.37Z"/><path class="cls-2" d="M246.32,122.68s1.53-2.28,3.61-2.74c2.08-.47,3.95-1.41,4.49-1.98,0,0,10.26,4.57,15.53,1.69l.91,.75s-10.35,9.42-17.27,6.53c-5.1-2.14-7.27-4.25-7.27-4.25Z"/><path class="cls-2" d="M238.87,128.67s.38-.66,1.37-.96,3.75-1.41,5-3.78c0,0,8.27,6.44,15.85,4.55l1.05,1.8s-12.38,5.16-18.41,1.83c-3.73-2.06-4.85-3.43-4.85-3.43Z"/><path class="cls-2" d="M238.87,128.67s-1.34,3.64-1.25,8.61c0,0,5.46,1.43,11.58-.18l-1.49-2.62s-4.35,.03-8.84-5.81Z"/><path class="cls-2" d="M268.35,178.94c-11.22-8.61-19.22-26.23-20.14-28.39,0,0,0,0,0-.01,.4,1.57,1.01,3.3,1.65,4.92,1.26,3.16,2.64,5.88,2.78,6.17,0,.01,0,.02,.01,.02,1.42,3.27,4.01,7.11,4.01,7.11-.57,16.66-7.92,0-13.25-9.89-.63-1.17-1.19-2.34-1.69-3.48-3.74-8.53-4.09-15.94-4.1-16.31,6.42,1.66,12.45-.33,12.45-.33,8.8,15.4,16.61,18.15,20.23,18.51,.26,1.89,1.08,5.29,1.33,6.34,.93,3.48,2.36,6.49,3.5,8.55,0,0,0,.01,0,.01,.98,15.02-1.81,10.59-6.78,6.79Z"/><path class="cls-2" d="M263.51,132.23s-.02-.04-.03-.05c.01,.01,.02,.03,.03,.05Z"/><path class="cls-2" d="M277.06,144.21c-.19-.08-.38-.17-.57-.27,.19,.09,.38,.18,.57,.27Z"/><path class="cls-2" d="M276.5,104.93c-3.15,3.94-4.31,4.68-15.35,4.06,0,0,2.75-1.95,4.26-4.08,.6-.27,7.97-1.68,15.52-5.32l-4.43,5.34Z"/><path class="cls-2" d="M277.06,144.21c-.19-.08-.38-.17-.57-.27,.19,.09,.38,.18,.57,.27Z"/><path class="cls-2" d="M294.53,66c-.87,2.15-2.37,4.43-4.87,6.56,0,0,0,0,0,0-.13,.11-.27,.23-.41,.34h0s0,0,0,0c-.09,.08-2.97,2.89-6.16,4.89-13.07,8.2-15.12,14.21-12.46,15.18,2.33,.85,5.87-3.84,6.27-7.36,0,.12,1.14,6.02-6.21,11.03-3.01,2.05-4.35,2.94-5.39,4.52-1.04,1.58-1.79,4.51-7.56,7.65,0,0,0,0,0,0-.16,.09-.33,.18-.5,.27-8.31,4.34-6.28,10.14,.03,2.19,0,0-1.19,5-6.37,6.53-3.62,1.07-4.44,.91-7.88,5.2-3.44,4.28-5.13-.36-8.12,8.23,0,0,.21-5.57,4.67-9.69-.02,.07-.7,2.65,.85,1.42,1.58-1.25,2.29-5.81,8.14-11.24-.05,.06-1.36,1.66,.19,1.93,1.59,.27,2.02-7.08,10.45-11.29-.13,.12-5.14,4.72-2.57,4.58,7.25-.4,8.12-11.79,8.12-11.79,0,0,.06-6.27,9.27-12.55,5.66-3.86,9.17-6.27,10.53-10.98,0,0,0-.01,0-.02,.78-2.82,.29-4.49,2.78-7.19-.04,.07-1.75,3.39-.37,5.06,.3,.37,.85,.42,1.52,.21,0,0,0,0,0,0,2.4-1.03,5.11-4.76,4.46-8.71-.66-3.94-.09-6.18,1.64-8.17-.04,.08-1.77,3.67-.49,6.89,.25,.64,.47,1.33,.62,2.07,.25,1.29,.26,2.71-.18,4.23Z"/><path class="cls-2" d="M250.5,104.23s4.37-10.59,10.65-18.16c6.28-7.57,17.38-15.89,17.38-15.89,0,0-16.94,17.06-28.03,34.05Z"/><path class="cls-2" d="M307.43,132.12c-14.98,14.53-27.38,10.15-27.38,10.15-1.07-.4-2.13-.85-3.2-1.32-8.25-3.67-13.53-13.35-13.53-13.35,6.95-3.02,9.05-5.72,9.05-5.72,23.27,19.7,33.45,8.4,33.45,8.4l1.6,1.85Z"/><path class="cls-2" d="M301.21,144.87c-2.46,1.79-12.69,8.8-22.69,9.26-11.46,.53-15.14,1.06-27.59-19.62,0,0,7.96,.02,12.51-2.38,0,0,0,0,0,.01,0,0,0,0,0,.01,0,0,0,0,0,.01,0,0,0,.01,.01,.02,0,.01,.02,.03,.03,.05,4.36,6.99,13.57,11.98,13.57,11.98,6.13,2.85,14.02,3.52,23.02-2.59,.38,1.13,.75,2.21,1.12,3.25Z"/><path class="cls-2" d="M316.67,114.34s-7.12,14.55-18.17,15.53h0c-1.3,.19-2.69,.26-4.19,.22-8.82-.25-22.29-11.86-22.29-11.86,0,0,0,0,.01,0,.26-.15,5.25-2.99,7.97-7.03,8.07,5.48,26.87,16.01,34.37,1.27l2.3,1.88Z"/><path class="cls-2" d="M267.76,102.31s.74-1.11,3.69-3.02,10.28-7.39,7.88-15.95c0,0,9.42,4.56,2.34,13.85,0,0-5.66,2.77-13.91,5.11Z"/><path class="cls-2" d="M279.77,104.39s36.93,22.62,38.79-16.06l-2.5-.25s-.88,25.74-31.74,9.52c0,0-3.03,5.22-4.55,6.78Z"/><path class="cls-2" d="M306.78,63.71s18.68,23.97-20.56,25.9c0,0,.02-3.57-1.9-5.01,0,0,34.12-.64,20.94-19.92l1.52-.97Z"/><path class="cls-2" d="M194.9,203.34c1.69-.53,2.18-1.62,.92-2.04s-4.33-2.66-4.33-2.66c.38,2.42,1.72,5.23,3.41,4.7Z"/><path class="cls-2" d="M191.12,182.11s1.87-3.05,2.85-3.88c.97-.84,.08-1.55-1.68-1.34-1.77,.21-1.81,3.06-1.16,5.22Z"/><path class="cls-2" d="M183.7,181.85s2.06-2.88,3.08-3.63c1.02-.75,.18-1.54-1.58-1.49-1.77,.05-2.01,2.9-1.5,5.12Z"/><path class="cls-2" d="M177.01,181.68s2.26-2.72,3.33-3.39c1.07-.67,.3-1.53-1.46-1.62-1.76-.09-2.2,2.74-1.87,5.01Z"/><path class="cls-2" d="M47.05,151.16c.76,.33,2.06,.77,4.11,1.15,2.89,.55,6.37,.85,9.79,.85,1.34,0,2.63-.05,3.85-.14,1.17-.09,2.25-.22,3.19-.38h.01c.71-.12,1.37-.26,1.96-.41,2.6-.67,6-4.89,10.7-10.72,2.88-3.57,9.29-11.23,13.66-16.11-2-2.04-2.88-3.37-3.92-5.16-7.17,5.46-14.51,11.52-18.76,15.33-7.39,6.61-11.85,10.6-17.26,10.97-.67,.04-1.35,.07-2.05,.07-.2,0-.42,0-.65,0-1.95,1.81-3.59,3.41-4.64,4.56Z"/><path class="cls-2" d="M64.84,164.01c.97,.23,2.66,.47,5.32,.47,5.83,0,12.68-1.11,16.68-2.69,.13-.05,.25-.1,.38-.15h0c.75-.32,1.55-1.03,2.44-2.16l.07-.09c1.55-2,3.24-5.11,5.37-9.02,1.3-2.4,5.02-8.89,6.7-11.82-1.67-1.83-3.34-3.09-4.6-4.98-3.4,3.9-8.38,9.61-10.78,12.58-6.01,7.45-9.63,11.95-14.59,13.23-1.27,.33-2.69,.59-4.24,.78-1.13,1.5-2.08,2.83-2.75,3.84Z"/><path class="cls-2" d="M14.69,115.87c.71,.71,2.24,1.88,5.16,3.37,3.46,1.77,7.73,3.39,11.72,4.44,1.08,.28,2.13,.53,3.12,.72,1.49,.29,2.85,.46,4.03,.53,.08,0,.15,0,.23,0,3.17,0,8.4-3.29,15.64-7.84,7.04-4.43,18.81-11.41,31.54-17.72-.48-1.79-.75-3.3-.87-4.57-6.84,2.72-30.97,12.67-40.56,16.54-10.9,4.4-19.28,6.77-27.13,3.04-1.14,.56-2.11,1.07-2.86,1.49Z"/><path class="cls-2" d="M29.23,133.29c.99,.7,3.11,1.85,7.01,3.1,4.45,1.43,9.58,2.45,13.73,2.74h.09c.79,.06,1.55,.09,2.27,.09,.35,0,.7,0,1.02-.02,.18,0,.37-.02,.55-.03,2.87-.2,7.05-3.94,12.83-9.11,4.33-3.87,14.99-13.84,23.3-20.4-.84-1.79-1.55-3.43-2.14-4.94-11.14,5.84-23.13,14.69-29.38,18.62-8.9,5.6-14.27,8.98-19.57,8.98-.23,0-.43,0-.63-.02-1.93-.1-4.09-.42-6.43-.94-1.23,.85-2.08,1.48-2.66,1.93Z"/><path class="cls-2" d="M88.73,176.55c.97,.2,1.99,.3,3.03,.3,4.35,0,9.19-1.79,13-4.8l.25-.2c.99-.8,1.87-1.66,2.61-2.55v-.02c.18-.19,.32-.37,.45-.55l.07-.09,.07-.08c.46-.51,.89-1.03,1.27-1.55,.25-.39,.48-.86,.7-1.45,.25-.64,.48-1.37,.65-1.94v-.03s.02-.03,.02-.03c.96-2.91,2.23-7.91,2.87-10.62-2.48-1.29-7.18-3.13-10.19-5.34-6.64,17.43-11.76,19.93-11.87,19.99h0c-.58,1.56-1.11,3.09-1.62,4.65-.2,.61-.39,1.21-.57,1.8-.13,.89-.45,1.74-.75,2.5Z"/><path class="cls-2" d="M110.39,182.51c.15,0,.29,0,.44,0,2.46,0,5.1-.68,7.63-1.96,2.39-1.21,4.64-2.93,6.5-4.96,.78-.86,1.48-1.75,2.06-2.64h0c4.26-5.54,5.27-12.28,5.95-15.69-2.76-.04-7.14-.19-12.44-1.74-.57,2.21-1.89,7.95-2.66,10.28-.19,.62-.47,1.54-.82,2.44-.42,1.07-.89,2.01-1.43,2.85l-.02,.03-.03,.05s-.07,.11-.13,.18c-.51,.69-1.06,1.36-1.63,2-.79,1.02-1.69,2-2.68,2.93-.08,.53-.15,1.06-.22,1.58h0c-.08,.57-.15,1.17-.24,1.92,.04,.93-.14,1.85-.29,2.67,0,.01,0,.02,0,.04Z"/><path class="cls-2" d="M7.59,92.8c1.67,6.25,8.54,10.34,14.94,11.68,1.46,.31,2.94,.48,4.37,.52,.11,0,.24,0,.36,0h.21c.82,.08,1.66,.12,2.52,.12h.03c.65-.04,1.4-.16,2.27-.37,.71-.17,1.53-.39,2.65-.74l.06-.02c4.84-1.36,9.27-2.82,13.56-4.45,.54-.2,1.08-.41,1.6-.61,.37-.14,.73-.28,1.1-.42l.06-.02,.06-.02c4.64-1.5,9.41-3.34,14.02-5.11,.8-.31,1.61-.62,2.42-.93,.02,0,.04-.01,.06-.02,11.96-4.47,24.16-6.86,26.74-7.33-.18-.62-.46-1.27-.73-1.8,0,0,0,0,0,0-.35-.61-.63-1.16-.64-1.2,0,0,0,0,0,0-2.34,.37-4.77,.82-7.15,1.31-6.95,1.41-13.55,3.1-16.73,3.94-.05,.01-.09,.02-.14,.04-.07,.02-.14,.04-.21,.06-.5,.14-1.02,.28-1.54,.41-.06,.02-.09,.02-.09,.02-7.07,1.91-15.35,4.11-21.97,5.79-14.6,3.7-30,9.46-35.26-1.48-.52,.15-1.05,.27-1.54,.39-.31,.07-.69,.16-1.04,.26Z"/><path class="cls-2" d="M7.63,55.28c1.41,2.68,3.73,5.28,6.51,7.32,1,.73,2.05,1.38,3.1,1.93,.75,.39,1.5,.73,2.22,1.01l.09,.03,.09,.04c.75,.36,1.5,.68,2.25,.96,.6,.18,1.32,.33,2.14,.44,.7,.09,1.51,.17,2.62,.24h.03s.03,0,.03,0c4.78,.42,9.21,.62,13.56,.62h.09c.55,0,1.09,0,1.64,0,.38,0,.75,0,1.13,0h.07s.07,0,.07,0c3.51,.17,7.06,.2,9.75,.2,1.51,0,3.06,0,4.55-.02,1.5,0,3.05-.02,4.58-.02,3.57,0,6.28,.05,8.81,.15,.78,.03,1.5,.07,2.19,.11,0,0,11.87,.9,19.96,1.89,.15-.46,.44-1.23,.76-1.84-3.21-.72-12.78-2.43-40.07-4.62-4.6-.37-9.74-.76-15.46-1.17-14.65-1.05-29.05-2.76-29.86-14.16-.54-.04-1.06-.11-1.55-.18-.32-.04-.63-.08-.91-.11-.22,2.33,.32,4.74,1.6,7.18Z"/><path class="cls-2" d="M92.36,77.93c-3.99,.09-17.48,1-33.83,3.41,0,0,0,0,0,0-15.5,2.52-29.8,4.99-34.62,4.19-.81-.14-1.61-.31-2.38-.52l-.1-.03-.1-.02c-.54-.1-1.09-.22-1.64-.37-1.23-.32-2.47-.76-3.68-1.3-3.23-1.44-6.11-3.57-8.1-5.99-1.79-2.17-2.84-4.54-3.08-6.92,.31-.03,.64-.04,.91-.06,.59-.03,1.22-.07,1.85-.15,1.88,9.17,14.07,8.57,23.43,8.5,4.07-.03,15.76-1.05,27.68-2.2,.02,0,.05,0,.07,0,.68-.07,1.35-.13,2.03-.2,14.22-1.33,27.01-1.21,31.4-1,0,0-.15,1.21,.16,2.66Z"/><path class="cls-2" d="M21.17,39.89q3.26,5.97,36.02,12.87c14.52,3.06,38.45,11.92,38.45,11.92,.27-.34,.53-.66,.8-.99-.16-.08-21.33-10.57-50.52-17.65-19.92-4.83-20.19-8.8-23.46-12.99-3.26-4.19-4.93-9.17-4.93-9.17l-1.91-.74c-1.79,2.16,5.54,16.75,5.54,16.75Z"/><path class="cls-2" d="M44.58,24.73c2.78,9.85,3.12,10.13,27.71,21.36,18.54,8.48,29.98,17.85,33.88,20.42-.08-.6-.05-1.2,.02-1.56-12.22-10.96-28.43-20.35-45.18-28.77-17.38-8.74-16.11-25.49-16.11-25.49-.55-.55-1.85-1.17-1.85-1.17-.75,1.17-1.54,4.28,1.54,15.21Z"/><path class="cls-2" d="M83.9,41c8.52,6.31,21.19,17.05,24.2,19.97,.05-.54,.16-1.51,.45-2.04-6.38-7.41-23.6-21.29-32.34-28.82-9.36-8.06-5.7-23.58-5.7-23.58-.53-.68-1.32-1.23-1.32-1.23-.49,.68-1.17,2.88-1.35,13.91-.19,11.73,4.93,13.55,16.07,21.79Z"/><path class="cls-2" d="M127.74,109.81c.67,.97,1.98,2.69,3.87,4.17,6.07,4.75,9.09,4.4,11.5,3.83,2.41-.57,5.82-1.71,5.82-1.71-1.95-2.37-2.05-5.05-2.05-5.05-13.32,2.79-17.33-2.61-17.33-2.61,0,0-.66,.53-1.81,1.37Z"/><path class="cls-2" d="M159.45,122.68s-1.53-2.28-3.61-2.74-3.95-1.41-4.49-1.98c0,0-10.26,4.57-15.53,1.69l-.91,.75s10.35,9.42,17.27,6.53c5.1-2.14,7.27-4.25,7.27-4.25Z"/><path class="cls-2" d="M166.89,128.67s-.38-.66-1.37-.96-3.75-1.41-5-3.78c0,0-8.27,6.44-15.85,4.55l-1.05,1.8s12.38,5.16,18.41,1.83c3.73-2.06,4.85-3.43,4.85-3.43Z"/><path class="cls-2" d="M166.89,128.67s1.34,3.64,1.25,8.61c0,0-5.46,1.43-11.58-.18l1.49-2.62s4.35,.03,8.84-5.81Z"/><path class="cls-2" d="M137.41,178.94c11.22-8.61,19.22-26.23,20.14-28.39,0,0,0,0,0-.01-.4,1.57-1.01,3.3-1.65,4.92-1.26,3.16-2.64,5.88-2.78,6.17,0,.01,0,.02-.01,.02-1.42,3.27-4.01,7.11-4.01,7.11,.57,16.66,7.92,0,13.25-9.89,.63-1.17,1.19-2.34,1.69-3.48,3.74-8.53,4.09-15.94,4.1-16.31-6.42,1.66-12.45-.33-12.45-.33-8.8,15.4-16.61,18.15-20.23,18.51-.26,1.89-1.08,5.29-1.33,6.34-.93,3.48-2.36,6.49-3.5,8.55,0,0,0,.01,0,.01-.98,15.02,1.81,10.59,6.78,6.79Z"/><path class="cls-2" d="M142.26,132.23s.02-.04,.03-.05c-.01,.01-.02,.03-.03,.05Z"/><path class="cls-2" d="M128.7,144.21c.19-.08,.38-.17,.57-.27-.19,.09-.38,.18-.57,.27Z"/><path class="cls-2" d="M129.27,104.93c3.15,3.94,4.31,4.68,15.35,4.06,0,0-2.75-1.95-4.26-4.08-.6-.27-7.97-1.68-15.52-5.32l4.43,5.34Z"/><path class="cls-2" d="M128.7,144.21c.19-.08,.38-.17,.57-.27-.19,.09-.38,.18-.57,.27Z"/><path class="cls-2" d="M111.24,66c.87,2.15,2.37,4.43,4.87,6.56,0,0,0,0,0,0,.13,.11,.27,.23,.41,.34h0s0,0,0,0c.09,.08,2.97,2.89,6.16,4.89,13.07,8.2,15.12,14.21,12.46,15.18-2.33,.85-5.87-3.84-6.27-7.36,0,.12-1.14,6.02,6.21,11.03,3.01,2.05,4.35,2.94,5.39,4.52,1.04,1.58,1.79,4.51,7.56,7.65,0,0,0,0,0,0,.16,.09,.33,.18,.5,.27,8.31,4.34,6.28,10.14-.03,2.19,0,0,1.19,5,6.37,6.53,3.62,1.07,4.44,.91,7.88,5.2,3.44,4.28,5.13-.36,8.12,8.23,0,0-.21-5.57-4.67-9.69,.02,.07,.7,2.65-.85,1.42-1.58-1.25-2.29-5.81-8.14-11.24,.05,.06,1.36,1.66-.19,1.93-1.59,.27-2.02-7.08-10.45-11.29,.13,.12,5.14,4.72,2.57,4.58-7.25-.4-8.12-11.79-8.12-11.79,0,0-.06-6.27-9.27-12.55-5.66-3.86-9.17-6.27-10.53-10.98,0,0,0-.01,0-.02-.78-2.82-.29-4.49-2.78-7.19,.04,.07,1.75,3.39,.37,5.06-.3,.37-.85,.42-1.52,.21,0,0,0,0,0,0-2.4-1.03-5.11-4.76-4.46-8.71,.66-3.94,.09-6.18-1.64-8.17,.04,.08,1.77,3.67,.49,6.89-.25,.64-.47,1.33-.62,2.07-.25,1.29-.26,2.71,.18,4.23Z"/><path class="cls-2" d="M155.26,104.23s-4.37-10.59-10.65-18.16c-6.28-7.57-17.38-15.89-17.38-15.89,0,0,16.94,17.06,28.03,34.05Z"/><path class="cls-2" d="M98.33,132.12c14.98,14.53,27.38,10.15,27.38,10.15,1.07-.4,2.13-.85,3.2-1.32,8.25-3.67,13.53-13.35,13.53-13.35-6.95-3.02-9.05-5.72-9.05-5.72-23.27,19.7-33.45,8.4-33.45,8.4l-1.6,1.85Z"/><path class="cls-2" d="M104.55,144.87c2.46,1.79,12.69,8.8,22.69,9.26,11.46,.53,15.14,1.06,27.59-19.62,0,0-7.96,.02-12.51-2.38,0,0,0,0,0,.01,0,0,0,0,0,.01,0,0,0,0,0,.01,0,0,0,.01-.01,.02,0,.01-.02,.03-.03,.05-4.36,6.99-13.57,11.98-13.57,11.98-6.13,2.85-14.02,3.52-23.02-2.59-.38,1.13-.75,2.21-1.12,3.25Z"/><path class="cls-2" d="M89.1,114.34s7.12,14.55,18.17,15.53h0c1.3,.19,2.69,.26,4.19,.22,8.82-.25,22.29-11.86,22.29-11.86,0,0,0,0-.01,0-.26-.15-5.25-2.99-7.97-7.03-8.07,5.48-26.87,16.01-34.37,1.27l-2.3,1.88Z"/><path class="cls-2" d="M138,102.31s-.74-1.11-3.69-3.02-10.28-7.39-7.88-15.95c0,0-9.42,4.56-2.34,13.85,0,0,5.66,2.77,13.91,5.11Z"/><path class="cls-2" d="M126,104.39s-36.93,22.62-38.79-16.06l2.5-.25s.88,25.74,31.74,9.52c0,0,3.03,5.22,4.55,6.78Z"/><path class="cls-2" d="M98.99,63.71s-18.68,23.97,20.56,25.9c0,0-.02-3.57,1.9-5.01,0,0-34.12-.64-20.94-19.92l-1.52-.97Z"/></g></g></g></svg>