<?xml version="1.0" encoding="UTF-8"?><svg id="Layer_2" xmlns="http://www.w3.org/2000/svg" viewBox="0 0 342.68 309.16"><defs><style>.cls-1{fill:#c4f26e;}.cls-2{fill:#101011;}.cls-3{fill:#f9f9f9;}</style></defs><g id="Layer_1-2"><g><path class="cls-1" d="M314.12,300.9h-51.63l-28.23-64.94-62.92-147.63-43.56,100.43-48.4,112.13H28.55L158.43,0h26.22l129.48,300.9Z"/><g><g><path class="cls-1" d="M171.58,308.81c-.07,0-.14,0-.21,0h-.03s-.03,0-.03,0c-.07,0-.14,0-.21,0-1,0-2.13-.52-3.58-1.64-1.09-.84-2.33-2.02-3.58-3.39-1.91-2.09-3.64-4.39-4.88-6.48l-.35-.59-.27,.63c-.74,1.74-1.38,3.06-1.84,3.8-.47,.75-1.22,1.18-2.07,1.18-1.5,0-2.99-1.33-4.82-4.33-1-1.64-2-3.64-2.82-5.63l-.24-.59-.37,.52c-1.14,1.63-2.11,2.87-2.74,3.49-.47,.48-1.07,.74-1.7,.74-1.71,0-3.01-1.71-4.22-5.54-.65-2.06-1.15-4.4-1.41-6.59l-.06-.51-.45,.24c-.35,.19-.74,.29-1.12,.29-.44,0-1.27-.14-1.96-1.06-1.09-1.46-1.42-4.56-1.51-6.91-.11-3.09,.17-6.14,.77-8.15,.67-2.26,2.98-3.81,6.48-6.14,2.99-2,7.09-4.74,11.89-9.06l.58-.52-.77-.09c-1.66-.19-2.96-.96-3.66-2.17-.81-1.41-.7-3.22,.31-4.98l1.29-2.24c1-1.73,2.56-2.76,4.17-2.76,.18,0,.36,.01,.54,.04,.08,.01,.15,.02,.23,.04l.14-.68c-.05-.01-.11-.02-.16-.03-.25-.04-.5-.06-.76-.06-.16,0-.32,0-.48,.02-.69-.53-1.4-1.05-2.1-1.53-.5-.32-1.02-.48-1.54-.48-1.73,0-3.38,1.66-5.47,3.76l-.41,.41c-.23,.23-.47,.48-.71,.74-1.17,1.24-2.38,2.52-3.64,2.52-1.11,0-2.19-1.03-3.29-3.14l-.27-.52-.33,.48c-2.65,3.92-4.5,5.51-6.39,5.51-.31,0-.62-.04-.95-.12-1.63-.42-2.47-2.08-2.89-3.4l-.18-.58-.41,.45c-3.76,4.19-6.41,6.83-8.34,8.32-1.59,1.23-2.86,1.8-4,1.8-.38,0-.74-.06-1.11-.18-1.22-.4-2-1.87-2.38-4.49-.05-.38-.1-.77-.14-1.18l-.06-.68-.52,.45c-3.12,2.74-6.45,4.56-9.62,5.26-1,.22-1.98,.33-2.92,.33-1.53,0-2.93-.3-3.84-.83-1.12-.64-1.46-2.37-1.09-5.44,.06-.51,.15-1.06,.25-1.63l.13-.71-.64,.35c-4.75,2.59-8.6,3.22-10.99,3.3-.18,0-.37,0-.55,0-2.86,0-5.33-.78-6.29-1.98-.49-.62-.95-2,.74-6.86,.32-.93,.7-1.9,1.11-2.91l.26-.64-.67,.17c-4.78,1.19-9.22,1.86-12.84,1.93-.23,0-.45,0-.67,0-3.47,0-6.04-.56-7.42-1.62-.96-.73-1.16-1.56-1.16-2.12,0-1.46,.73-3.12,2.16-4.95,.09-.11,.18-.22,.27-.33l.49-.6-.77,.03c-.81,.03-1.61,.05-2.37,.05-4.01,0-7.34-.44-9.9-1.3-2.83-.95-4.63-2.44-4.93-4.1-.22-1.21,.73-2.83,2.9-4.97,.41-.4,.87-.83,1.36-1.26l.53-.47-.69-.14c-7.55-1.48-12.65-2.98-15.58-4.57-2.71-1.47-3.17-2.82-3.4-4.07l-.03-.15c-.21-1.06,.56-2.26,2.35-3.67,.2-.16,.41-.31,.6-.45l.55-.39-.64-.22c-5.79-1.97-9.78-3.86-12.2-5.79-2.27-1.8-2.71-3.31-2.85-4.54-.12-1.16,1.29-2.46,4.58-4.22,.63-.34,1.31-.68,2.04-1.03l.72-.34-.74-.29c-2.96-1.17-5.5-2.71-7.54-4.56-2.62-2.38-3.81-4.71-4.34-6.25-.66-1.9-.68-3.59-.05-4.51,.65-.95,2.35-1.84,5.04-2.65,.43-.13,.85-.24,1.24-.35l.75-.2-.64-.43c-5.89-3.95-7.92-7.88-8.58-10.48-.64-2.51-.22-4.46,.33-5.37,.55-.91,2.13-1.47,4.95-1.76,.42-.04,.87-.08,1.34-.11l.74-.05-.51-.54c-2.33-2.48-4.07-4.85-5.17-7.02-1.1-2.18-1.58-4.19-1.43-5.98,.18-2.03,1.17-3.38,1.97-3.93,.2-.13,.52-.36,2.39-.36,1.24,0,2.98,.1,5.19,.3,1.33,.12,2.8,.27,4.38,.45l.62,.07-.27-.56c-3.38-7.19-5.22-11.68-5.94-14.55-.75-2.95-.37-4.14,.35-5.76,.27-.6,.94-.89,2.05-.89,1.01,0,2.22,.24,3.17,.45,2.16,.48,5.08,1.34,8.67,2.56,4.07,1.39,8.14,2.95,10.21,3.76l.64,.25-.18-.67c-1.47-5.4-2.18-9.33-2.17-12.02,0-2.55,.64-4.17,2.05-5.25,.25-.19,.56-.28,.96-.28,.8,0,1.96,.36,3.64,1.15,1.71,.79,3.95,2.02,6.64,3.63,2.81,1.69,5.57,3.47,7.4,4.68l.52,.34,.02-.62c.14-3.88,.43-6.79,.88-8.89,.5-2.34,1.21-3.7,2.24-4.29,.38-.22,.78-.32,1.21-.32,.9,0,1.84,.46,2.63,.91,1.3,.73,3.73,3.12,7.43,7.29,2.88,3.25,6.51,7.56,10.79,12.82,2.15,2.64,4.47,5.53,6.88,8.57l.1,.13c1.32,1.63,2.31,2.39,3.11,2.39,.88,0,1.21-.86,1.41-1.38,.03-.08,.06-.15,.08-.21,.88-2.03,1.93-3.11,2.66-3.67-1.3,3.88-.87,6.21-.33,7.83v.03s.02,.03,.02,.03c.16,.44,.35,.91,.57,1.4l.23,.5c.56,1.2,1.28,2.48,2.11,3.8,2.57,4.03,7.63,10.38,17.2,17.75,12.87,9.92,17.14,18.16,20.9,25.43,1.78,3.44,3.47,6.69,5.94,9.95l.14,.18c.16,.22,.32,.43,.48,.64l.03,.04c2.23,3,4.11,7.07,5.3,11.46,1.02,3.75,1.48,3.78,1.76,3.78h0c.14,0,.27-.07,.35-.18,.19-.26,.14-.72,.05-1.04-.37-1.15-1.55-5.01-1.55-7.31,0-.52,.04-.99,.11-1.42,.01,.17,.03,.34,.05,.52,.16,1.13,.76,1.25,1.01,1.25,.92,0,1.78-1.37,1.78-2.82s-.23-2.43-.78-3.49c-.02-.04-.04-.07-.06-.11l-.17-.35c-.59-1.36-.75-3.27-.48-5.67,.37-3.3,1.45-6.41,1.52-6.59l.02-.07h0s.02-.08,.02-.08c.15-.52,.37-1.08,.75-1.88,.07-.16,.13-.27,.19-.36,0,.07,.01,.14,.01,.21,0,7.56,11.23,9.54,16.06,10.04,1.99,.11,4.87,.67,5.1,1.58h.67c.23-.91,3.11-1.47,5.08-1.58,4.84-.5,16.07-2.48,16.07-10.05,0-.07,0-.14,.01-.21,.05,.09,.11,.2,.19,.36,.38,.8,.6,1.37,.75,1.89l.02,.06h0s.02,.08,.02,.08h0c.1,.28,1.15,3.31,1.52,6.6,.27,2.4,.11,4.32-.48,5.69l-.16,.35s-.03,.06-.05,.09c-.55,1.07-.79,2.11-.79,3.5,0,.69,.19,1.38,.54,1.93,.35,.57,.81,.89,1.25,.89,.25,0,.86-.12,1.01-1.25,.02-.18,.04-.35,.05-.52,.07,.43,.11,.9,.11,1.42,0,2.31-1.18,6.17-1.54,7.3v.03c-.1,.32-.14,.77,.04,1.02,.09,.12,.22,.18,.35,.18,.28,0,.74,0,1.77-3.78,1.19-4.4,3.08-8.47,5.3-11.46l.03-.04c.15-.21,.31-.43,.47-.64l.14-.18c2.48-3.25,4.16-6.5,5.94-9.94,3.77-7.28,8.04-15.52,20.91-25.44,9.56-7.37,14.63-13.72,17.2-17.75,.84-1.31,1.55-2.6,2.12-3.81l.22-.49c.22-.49,.41-.95,.57-1.4l.02-.03v-.03c.55-1.62,.98-3.95-.32-7.83,.73,.57,1.78,1.64,2.66,3.67,.03,.06,.05,.13,.08,.21,.2,.52,.53,1.38,1.41,1.38,.8,0,1.79-.76,3.11-2.39l.08-.11c2.43-3.06,4.74-5.95,6.9-8.59,4.28-5.26,7.91-9.57,10.79-12.82,3.7-4.17,6.13-6.56,7.43-7.29,.8-.45,1.73-.91,2.63-.91,.44,0,.83,.1,1.21,.32,1.03,.58,1.74,1.95,2.24,4.29,.45,2.1,.74,5.01,.88,8.89l.02,.62,.52-.34c1.82-1.2,4.58-2.99,7.4-4.68,2.69-1.61,4.92-2.83,6.64-3.63,1.69-.78,2.84-1.15,3.64-1.15,.4,0,.71,.09,.96,.28,1.41,1.08,2.04,2.7,2.05,5.25,0,2.69-.7,6.63-2.17,12.02l-.18,.67,.64-.25c2.06-.81,6.13-2.37,10.21-3.76,3.59-1.22,6.51-2.08,8.67-2.56,.95-.21,2.17-.45,3.17-.45,1.12,0,1.79,.29,2.05,.89,.72,1.62,1.1,2.81,.35,5.76-.73,2.87-2.56,7.36-5.94,14.55l-.27,.56,.62-.07c1.55-.18,3.06-.33,4.38-.45,2.21-.2,3.96-.3,5.19-.3,1.87,0,2.2,.22,2.39,.36,.8,.54,1.79,1.9,1.97,3.93,.16,1.78-.32,3.79-1.43,5.98-1.1,2.18-2.84,4.54-5.17,7.02l-.51,.54,.74,.05c.47,.03,.92,.07,1.34,.11,2.82,.29,4.4,.85,4.95,1.76,.55,.91,.97,2.86,.33,5.37-.67,2.6-2.69,6.53-8.58,10.48l-.64,.43,.75,.2c.39,.1,.81,.22,1.24,.35,2.69,.81,4.39,1.7,5.04,2.65,.63,.92,.61,2.61-.05,4.51-.54,1.54-1.73,3.87-4.34,6.25-2.04,1.85-4.58,3.39-7.54,4.56l-.74,.29,.72,.34c.73,.35,1.41,.7,2.04,1.03,3.29,1.76,4.7,3.07,4.58,4.22-.13,1.23-.58,2.74-2.85,4.54-2.42,1.92-6.41,3.81-12.2,5.79l-.64,.22,.55,.39c.2,.14,.4,.29,.6,.45,1.79,1.4,2.56,2.6,2.35,3.66l-.03,.16c-.23,1.25-.69,2.59-3.4,4.07-2.94,1.59-8.03,3.09-15.58,4.57l-.69,.14,.53,.47c.49,.43,.95,.85,1.36,1.26,2.17,2.14,3.12,3.76,2.9,4.97-.3,1.65-2.1,3.14-4.93,4.1-2.56,.86-5.89,1.3-9.9,1.3h0c-.76,0-1.56-.02-2.37-.05l-.77-.03,.49,.6c.09,.11,.18,.22,.27,.33,1.43,1.83,2.16,3.5,2.16,4.95,0,.56-.2,1.39-1.16,2.12-1.39,1.06-3.96,1.62-7.42,1.62-.22,0-.44,0-.67,0-3.62-.07-8.06-.74-12.84-1.93l-.67-.17,.26,.64c.42,1.01,.79,1.98,1.11,2.91,1.7,4.86,1.24,6.24,.74,6.86-.96,1.2-3.43,1.98-6.29,1.98-.18,0-.36,0-.55,0-2.39-.08-6.24-.72-10.99-3.3l-.64-.35,.13,.71c.1,.58,.19,1.13,.25,1.63,.38,3.06,.03,4.79-1.09,5.44-.91,.53-2.31,.83-3.84,.83-.94,0-1.92-.11-2.92-.33-3.17-.69-6.49-2.51-9.62-5.26l-.52-.45-.06,.68c-.04,.41-.08,.8-.14,1.18-.38,2.63-1.16,4.1-2.38,4.49-.37,.12-.74,.18-1.11,.18-1.14,0-2.41-.57-4-1.8-1.93-1.49-4.58-4.14-8.34-8.32l-.41-.45-.18,.58c-.42,1.32-1.26,2.98-2.89,3.4-.33,.08-.64,.12-.95,.12-1.88,0-3.73-1.6-6.39-5.51l-.33-.48-.27,.52c-1.1,2.11-2.18,3.14-3.29,3.14-1.26,0-2.47-1.28-3.64-2.52-.24-.25-.48-.5-.71-.74l-.41-.41c-2.09-2.1-3.73-3.76-5.47-3.76-.52,0-1.04,.16-1.53,.47-.71,.49-1.42,1-2.11,1.54-.16-.02-.32-.02-.47-.02-.26,0-.51,.02-.76,.06-.05,0-.11,.02-.16,.03l.14,.68c.08-.01,.15-.03,.23-.04,.18-.02,.36-.04,.53-.04,1.61,0,3.17,1.03,4.17,2.76l1.29,2.24c1.01,1.76,1.13,3.57,.31,4.98-.7,1.21-2,1.98-3.66,2.17l-.77,.09,.58,.52c4.8,4.32,8.9,7.06,11.89,9.06,3.5,2.34,5.81,3.89,6.48,6.15,.6,2.01,.89,5.06,.77,8.15-.09,2.35-.42,5.46-1.51,6.91-.68,.92-1.52,1.06-1.96,1.06-.38,0-.76-.1-1.12-.29l-.45-.24-.06,.51c-.26,2.19-.76,4.53-1.41,6.59-1.2,3.83-2.5,5.54-4.22,5.54-.63,0-1.23-.26-1.7-.74-.62-.63-1.59-1.87-2.74-3.49l-.37-.52-.24,.59c-.81,1.99-1.81,3.99-2.82,5.63-1.83,2.99-3.31,4.33-4.82,4.33-.84,0-1.6-.43-2.07-1.18-.46-.74-1.1-2.05-1.84-3.8l-.27-.63-.35,.59c-1.24,2.09-2.98,4.39-4.88,6.48-1.26,1.37-2.49,2.55-3.58,3.39-1.44,1.12-2.58,1.64-3.58,1.64Zm18.81-55.96l.65,.24,.03-.08-.65-.26s-.03,.07-.04,.1Zm-38.75,.24l.65-.24s-.02-.07-.04-.1l-.09-.22h-.75l.22,.56Z"/><path class="cls-3" d="M176.34,203.68c.41-.42,.83-.83,1.24-1.25,1-1.01,2-2.01,3-3.02,.57-.57,1.15-1.15,1.85-1.57,.28-.16,.58-.31,.88-.45,.26,.59,.39,1.24,.38,1.91-.06,2.69-2.5,4.81-5.44,4.74-.67-.02-1.31-.14-1.9-.37Z"/><path class="cls-3" d="M166.34,203.68c-.59,.22-1.23,.35-1.9,.37-2.94,.07-5.38-2.05-5.44-4.74-.02-.67,.12-1.32,.38-1.91,.3,.14,.6,.29,.88,.45,.7,.41,1.28,.99,1.85,1.57,1,1.01,2,2.01,3,3.02,.41,.42,.83,.83,1.24,1.25Z"/></g><g><path class="cls-2" d="M342.34,157.33c.67-2.61,.22-4.67-.37-5.63-.62-1.03-2.23-1.62-5.21-1.93-.47-.05-.93-.08-1.36-.11,2.36-2.51,4.11-4.9,5.23-7.11,1.13-2.24,1.63-4.31,1.46-6.16-.19-2.15-1.26-3.6-2.12-4.18-.39-.27-1.06-.72-7.81-.12-1.62,.14-3.21,.32-4.39,.45,3.39-7.2,5.24-11.74,5.97-14.61,.77-3.05,.36-4.35-.37-5.99-.67-1.5-3.09-1.2-5.62-.64-2.17,.48-5.1,1.34-8.71,2.57-3.99,1.36-7.94,2.87-10.22,3.76,1.47-5.43,2.19-9.4,2.18-12.12,0-2.67-.68-4.37-2.19-5.52-.85-.66-2.29-.42-4.96,.82-1.73,.8-3.97,2.03-6.67,3.65-2.9,1.74-5.72,3.57-7.41,4.68-.14-3.9-.43-6.84-.89-8.95-.53-2.45-1.29-3.88-2.41-4.52-1.38-.78-2.83-.18-4.19,.59-1.33,.75-3.79,3.16-7.51,7.36-2.89,3.26-6.52,7.58-10.8,12.83-2.43,2.99-4.8,5.95-6.88,8.57-.03,.04-.07,.08-.1,.12-3.23,3.99-3.68,1.65-4.01,.88-1.48-3.41-3.47-4.24-3.66-4.41,0,0,0,0-.01,0,1.6,4.16,1.33,6.71,.68,8.63,0,0,0,.01,0,.01-.15,.4-.33,.87-.57,1.39-.02,.05-.04,.09-.06,.14-.05,.11-.1,.22-.15,.32,0,.01,0,.02-.01,.03-.49,1.05-1.17,2.32-2.1,3.76-2.55,4.01-7.59,10.32-17.11,17.66-12.93,9.97-17.22,18.25-21,25.55-1.76,3.39-3.45,6.66-5.91,9.89-.05,.06-.09,.12-.14,.18-.16,.22-.33,.43-.48,.65-.01,.01-.02,.02-.03,.03-2.05,2.76-4.07,6.82-5.36,11.58-1.29,4.76-1.76,3.6-1.5,2.75,0,0,0,0,0-.01,.42-1.3,1.56-5.08,1.56-7.4,0-2.84-1.18-4.34-1.18-4.34,0,0,.6,1.39,.32,3.4-.28,2.01-2.1,.51-2.1-1.53,0-1.29,.21-2.29,.74-3.33,.02-.04,.04-.07,.06-.11l.17-.36c.71-1.64,.74-3.8,.51-5.86-.38-3.38-1.48-6.51-1.54-6.68,0,0,0,0,0,0l-.03-.1c-.17-.6-.43-1.21-.77-1.94-.7-1.49-.86-.42-.86,0,0,7.12-10.39,9.14-15.75,9.7,0,0-5.01,.27-5.4,1.84-.39-1.57-5.4-1.84-5.4-1.84-5.35-.56-15.75-2.58-15.75-9.7,0-.42-.16-1.49-.86,0-.34,.73-.6,1.34-.77,1.94l-.03,.1s0,0,0,0c-.06,.18-1.16,3.3-1.54,6.68-.23,2.06-.2,4.23,.51,5.86l.17,.36s.04,.07,.06,.11c.54,1.04,.74,2.04,.74,3.33,0,2.03-1.82,3.54-2.1,1.53-.28-2.01,.32-3.4,.32-3.4,0,0-1.18,1.5-1.18,4.34,0,2.33,1.14,6.1,1.56,7.4,0,0,0,0,0,.01,.26,.85-.21,2.01-1.5-2.75-1.29-4.76-3.31-8.82-5.36-11.58,0-.01-.02-.02-.02-.03-.15-.22-.32-.43-.48-.65-.05-.06-.09-.12-.14-.18-2.46-3.23-4.15-6.5-5.91-9.89-3.78-7.3-8.07-15.58-21-25.55-9.52-7.34-14.56-13.66-17.11-17.66-.92-1.45-1.6-2.71-2.1-3.76,0-.01-.01-.02-.01-.03-.05-.1-.1-.21-.15-.32-.02-.04-.04-.09-.06-.14-.23-.52-.42-.99-.57-1.39,0,0,0-.01,0-.01-.65-1.91-.93-4.47,.68-8.63,0,0,0,0-.01,.01-.19,.17-2.17,1-3.66,4.41-.33,.77-.78,3.1-4.01-.88-.03-.04-.06-.08-.1-.12-2.08-2.62-4.45-5.58-6.88-8.57-4.28-5.26-7.91-9.57-10.8-12.83-3.73-4.2-6.18-6.61-7.51-7.36-1.36-.77-2.81-1.37-4.19-.59-1.12,.64-1.89,2.07-2.41,4.52-.45,2.11-.75,5.05-.89,8.95-1.69-1.11-4.51-2.95-7.41-4.68-2.7-1.62-4.94-2.84-6.67-3.65-2.67-1.24-4.11-1.48-4.96-.82-1.5,1.15-2.18,2.86-2.18,5.52,0,2.71,.71,6.69,2.18,12.12-2.28-.9-6.24-2.41-10.22-3.76-3.6-1.23-6.53-2.09-8.71-2.57-2.53-.56-4.95-.86-5.62,.64-.72,1.63-1.14,2.94-.37,5.99,.72,2.87,2.58,7.41,5.97,14.61-1.17-.13-2.77-.31-4.39-.45-6.75-.6-7.42-.15-7.81,.12-.86,.59-1.93,2.04-2.12,4.18-.16,1.85,.33,3.92,1.46,6.16,1.12,2.21,2.87,4.6,5.23,7.11-.43,.03-.89,.06-1.36,.11-2.98,.31-4.59,.9-5.21,1.93-.59,.97-1.03,3.02-.37,5.63,.7,2.75,2.81,6.71,8.73,10.68-.39,.1-.82,.22-1.25,.35-2.81,.84-4.52,1.75-5.23,2.78-.69,1.01-.69,2.81,.01,4.82,.55,1.58,1.76,3.96,4.44,6.39,2.08,1.89,4.64,3.44,7.65,4.63-.64,.31-1.34,.66-2.05,1.04-3.48,1.87-4.9,3.23-4.76,4.57,.14,1.31,.61,2.9,2.98,4.78,2.44,1.94,6.48,3.86,12.3,5.84-.2,.14-.41,.3-.61,.46-1.91,1.49-2.72,2.8-2.48,4.01,.01,.05,.02,.1,.03,.15,.25,1.33,.73,2.77,3.58,4.31,2.96,1.61,8.11,3.12,15.68,4.61-.43,.38-.9,.81-1.37,1.27-2.29,2.25-3.24,3.93-3,5.28,.33,1.78,2.21,3.37,5.16,4.36,3.1,1.04,7.27,1.47,12.4,1.27-.09,.11-.18,.22-.27,.34-1.48,1.89-2.24,3.63-2.24,5.17,0,.64,.23,1.58,1.3,2.4,1.55,1.18,4.42,1.76,8.31,1.68,3.67-.07,8.1-.74,12.91-1.94-.34,.83-.75,1.86-1.12,2.93-1.73,4.97-1.28,6.45-.69,7.19,1.04,1.3,3.58,2.11,6.57,2.11,.19,0,.37,0,.56-.01,2.53-.08,6.39-.76,11.14-3.35-.09,.51-.18,1.07-.25,1.65-.39,3.22,0,5.06,1.26,5.78,1.26,.73,3.76,1.25,7.01,.54,3.25-.71,6.6-2.54,9.77-5.34,.03,.38,.08,.79,.14,1.2,.4,2.77,1.26,4.33,2.62,4.77,.4,.13,.81,.2,1.22,.2,1.24,0,2.57-.6,4.22-1.87,1.95-1.51,4.57-4.12,8.39-8.37,.46,1.45,1.37,3.18,3.14,3.63,2.36,.6,4.45-.72,7.7-5.53,3.22,6.17,5.88,2.3,8.2-.03,2.79-2.8,4.82-5.03,6.98-3.66,.86,.59,1.61,1.15,2.2,1.61,.08-.01,.16-.02,.24-.02-1.76,.15-3.24,1.38-4.12,2.92l-1.29,2.24c-1.08,1.87-1.19,3.81-.31,5.33,.76,1.31,2.16,2.14,3.92,2.34-4.79,4.3-8.85,7.02-11.85,9.03-3.56,2.38-5.91,3.96-6.62,6.34-.61,2.05-.9,5.14-.78,8.27,.09,2.4,.44,5.58,1.58,7.11,.77,1.04,1.73,1.2,2.24,1.2,.44,0,.88-.11,1.28-.33,.26,2.18,.76,4.55,1.42,6.66,1.26,4,2.66,5.78,4.55,5.78,.72,0,1.41-.3,1.95-.84,.65-.65,1.62-1.9,2.77-3.54,.82,2,1.81,4,2.84,5.68,1.9,3.11,3.47,4.49,5.11,4.49,.96,0,1.82-.49,2.36-1.35,.47-.76,1.13-2.11,1.87-3.85,1.24,2.09,2.98,4.4,4.93,6.53,1.27,1.39,2.53,2.58,3.63,3.43,1.51,1.17,2.71,1.72,3.79,1.72,.08,0,.16,0,.24-.01,.08,0,.16,.01,.24,.01,1.08,0,2.28-.55,3.79-1.72,1.1-.86,2.36-2.04,3.63-3.43,1.95-2.13,3.69-4.44,4.93-6.53,.74,1.73,1.39,3.08,1.87,3.85,.54,.86,1.4,1.35,2.36,1.35,1.64,0,3.22-1.39,5.11-4.49,1.03-1.68,2.02-3.68,2.84-5.68,1.15,1.64,2.13,2.89,2.77,3.54,.54,.54,1.23,.84,1.95,.84,1.89,0,3.29-1.78,4.55-5.78,.66-2.1,1.16-4.47,1.42-6.66,.4,.22,.84,.33,1.28,.33,.5,0,1.46-.15,2.24-1.2,1.14-1.53,1.48-4.71,1.58-7.11,.12-3.13-.18-6.22-.78-8.27-.71-2.38-3.06-3.95-6.62-6.34-3.01-2.01-7.07-4.73-11.85-9.03,1.76-.2,3.16-1.03,3.93-2.34,.88-1.52,.76-3.46-.32-5.33l-1.29-2.24c-.89-1.54-2.36-2.77-4.12-2.92,.08,0,.16,.01,.24,.02,.59-.46,1.34-1.02,2.2-1.61,2.16-1.37,4.18,.86,6.98,3.66,2.32,2.33,4.98,6.2,8.2,.03,3.26,4.8,5.34,6.13,7.71,5.53,1.76-.45,2.68-2.17,3.14-3.63,3.81,4.25,6.43,6.86,8.39,8.37,1.65,1.27,2.97,1.87,4.22,1.87,.41,0,.82-.07,1.22-.2,1.36-.44,2.22-2,2.62-4.77,.06-.41,.1-.82,.14-1.2,3.17,2.79,6.52,4.63,9.77,5.34,3.25,.71,5.75,.19,7.01-.54,1.25-.72,1.65-2.56,1.26-5.78-.07-.58-.16-1.14-.25-1.65,4.75,2.58,8.62,3.26,11.14,3.35,.19,0,.37,.01,.56,.01,2.98,0,5.52-.81,6.57-2.11,.59-.74,1.05-2.23-.69-7.19-.37-1.07-.78-2.09-1.12-2.93,4.81,1.2,9.25,1.87,12.91,1.94,3.89,.08,6.77-.51,8.31-1.68,1.07-.82,1.3-1.75,1.3-2.4,0-1.54-.75-3.28-2.23-5.17-.09-.11-.18-.23-.27-.34,5.14,.2,9.3-.23,12.4-1.27,2.96-.99,4.84-2.58,5.16-4.36,.24-1.35-.71-3.02-3-5.28-.47-.46-.94-.9-1.37-1.27,7.58-1.49,12.72-3,15.68-4.61,2.84-1.55,3.33-2.98,3.58-4.31,0-.05,.02-.1,.03-.15,.24-1.2-.57-2.51-2.48-4.01-.21-.16-.41-.32-.61-.46,5.82-1.98,9.85-3.9,12.3-5.84,2.37-1.88,2.83-3.47,2.98-4.78,.14-1.34-1.28-2.7-4.76-4.57-.71-.38-1.42-.74-2.05-1.04,3-1.19,5.57-2.74,7.65-4.63,2.67-2.43,3.89-4.82,4.44-6.39,.7-2.01,.7-3.81,.01-4.82-.71-1.03-2.42-1.94-5.23-2.78-.43-.13-.85-.25-1.25-.35,5.92-3.97,8.02-7.93,8.73-10.68Zm-165.21,55.41c3.22-.19,4.41-2.24,4.41-2.24-4.41,.97-4.92-.43-4.92-.43,1.96,.42,3.11-.72,3.11-.72-.96,0-1.88-.31-2.61-.93-.53-.45-.94-1.05-1.23-1.68-.2-.44-.35-.91-.47-1.38,0-.03-.01-.05-.01-.08,.92,.39,2.09,.71,3.38,.83,3.42,.32,7.23-2.73,7.3-5.89,.04-1.75-.31-2.69-.62-3.63,1.06-.29,2.17-.41,3.23-.15,.21,.05,.41,.12,.61,.2,2.44,1.01,.5,3.21-1.34,3.35,0,0,1.8,.53,3.76-.96,0,0-.66,3.18-2.67,3.96,0,0,2.32-.33,3.52-1.92,0,0-.07,2.88-2.55,5.01,.05-.02,1.64-.7,3.17-2.63-1.2,4.68-5.34,10.89-12.13,10.89h-1.24c4.81-.85,6.31-3.47,6.31-3.47-5.58,2.84-9.02,1.87-9.02,1.87Zm-.79-9.06c.41-.42,.82-.83,1.24-1.25,1-1.01,2-2.01,3-3.02,.57-.57,1.15-1.15,1.85-1.57,.28-.16,.58-.31,.88-.45,.26,.59,.39,1.24,.38,1.91-.06,2.69-2.5,4.81-5.44,4.74-.67-.02-1.31-.14-1.9-.37Zm-10.11-16.18c4.28,.43,4.99,1.83,5.11,2.28,.11-.45,.82-1.85,5.1-2.28,14.52-1.21,16.51-7.43,16.51-7.43-.07,3.36-1.18,5.34-3.78,8.81-2.6,3.47-2.15-.39-2.15-.39-2.32,2.18-.69,3.4-3.7,5.36-3,1.96-1.99-2.01-1.99-2.01-2.22,1.82-1.04,4-3.61,5.66-2.52,1.64-.79-3.16-.73-3.34-1.14,.81-2.08,3.24-2.2,4.96-.12,1.71-2.27,2.97-3.46,2.99-1.19-.02-3.34-1.29-3.46-2.99-.12-1.72-1.06-4.15-2.2-4.96,.06,.18,1.79,4.98-.73,3.34-2.57-1.66-1.39-3.84-3.61-5.66,0,0,1.02,3.97-1.99,2.01-3-1.96-1.37-3.18-3.7-5.36,0,0,.45,3.87-2.15,.39-2.6-3.47-3.71-5.45-3.78-8.81,0,0,1.99,6.22,16.51,7.43Zm7.42,19.57c0,.71-.17,1.45-.29,2.15-.13,.77-.29,1.53-.46,2.29-.21,.89-.46,1.79-.85,2.62-.1,.22-.23,.45-.41,.62-.13,.11-.25,.13-.3,.25-.06-.11-.18-.13-.31-.25-.18-.17-.31-.39-.41-.62-.39-.83-.64-1.73-.85-2.62-.18-.76-.33-1.52-.46-2.29-.12-.7-.29-1.44-.29-2.15,0-.76,1.77-1.91,2.32-1.95,.55,.04,2.31,1.19,2.31,1.95Zm-7.31-3.39c-.59,.22-1.23,.35-1.9,.37-2.94,.07-5.38-2.05-5.44-4.74-.02-.67,.12-1.32,.38-1.91,.3,.13,.6,.28,.88,.45,.7,.41,1.28,.99,1.85,1.57,1,1.01,2,2.01,3,3.02,.41,.42,.83,.83,1.24,1.25Zm-13.7,2.4c-2.48-2.13-2.55-5.01-2.55-5.01,1.2,1.59,3.52,1.92,3.52,1.92-2.01-.78-2.67-3.96-2.67-3.96,1.96,1.48,3.76,.96,3.76,.96-1.84-.14-3.78-2.35-1.34-3.35,.2-.08,.4-.15,.61-.2,1.06-.26,2.17-.13,3.23,.15-.31,.94-.66,1.87-.62,3.63,.07,3.15,3.88,6.21,7.3,5.89,1.29-.12,2.46-.45,3.38-.83,0,.03-.01,.05-.01,.08-.12,.47-.27,.94-.47,1.38-.29,.64-.7,1.23-1.23,1.68-.73,.62-1.66,.93-2.61,.93,0,0,1.15,1.14,3.11,.72,0,0-.51,1.4-4.92,.43,0,0,1.19,2.05,4.41,2.24,0,0-3.43,.97-9.01-1.87,0,0,1.49,2.62,6.31,3.47h-1.24c-6.79,0-10.93-6.21-12.13-10.89,1.54,1.94,3.13,2.61,3.17,2.63Zm-4.41,40.12l1.29-2.24c.73-1.26,1.68-1.89,2.64-1.89s1.92,.63,2.65,1.89l.2,.35,.21-.35c.73-1.26,1.68-1.89,2.64-1.89s1.92,.63,2.64,1.89l.33,.57,.33-.57c.73-1.26,1.69-1.89,2.64-1.89s1.92,.63,2.65,1.89l1.29,2.24c1.05,1.82,.72,3.41-.65,4.14-.02,.01-.03,.02-.05,.03-2.84,.96-6.66-.25-6.75-.28,1.82,1.62,3.83,1.98,5.21,1.94-.66,1.2-1.06,2.86-1.06,4.7,0,1.62,.31,3.11,.83,4.25-1.22-.51-2.93-1.5-4.56-3.41,.16,.22,2.6,4.05,5.95,5.27l.07,.05s.01,.01,.02,.01c0,0,0,0,.01,0,.92,.64,1.53,1.7,1.53,2.91,0,1.95-1.58,3.53-3.53,3.53s-3.52-1.57-3.53-3.51v-.02c0-.46-.13-.9-.36-1.37-.58-1.16-1.84-2.47-3.55-4.57-2.41-2.95-1.87-7.3-.71-7.65h-.01c.79-.32,1.56-.95,2.03-2.15-.15,.08-3.74,2.13-6.06,0,0,0-.06,.71-1.02,.71h-.67c-2.91,0-4.1-2.06-2.65-4.58Zm3.78-6.22c.05,0,.1,0,.16,0,.1,0,.21,0,.31,.01-.15-.01-.31-.01-.46,0Zm57.09,28.8c.96,3.25,.58,8.84-.4,11.65v.02s-.03,.06-.04,.08c0,0,0,.01,0,.02-.02,.06-.04,.12-.07,.17-.46,1.1-1.39,1.07-2.14,.81-.62-.21-1.11-.57-1.13-.59h0c-.54,6.69-3.34,15.24-4.95,13.6-.67-.68-2-2.41-3.75-5.02-.22-.34-.45-.69-.69-1.05-2.01,5.8-7.11,13.72-8.36,11.72-.54-.86-1.49-2.89-2.66-5.9-.22-.56-.45-1.16-.68-1.79-2.8,7.74-10.77,15.1-12.87,14.51h0c-2.1,.59-10.07-6.76-12.87-14.51-.24,.63-.46,1.23-.68,1.79-1.17,3.01-2.13,5.04-2.66,5.9-1.25,2-6.35-5.93-8.36-11.72-.24,.36-.47,.71-.69,1.05-1.75,2.62-3.08,4.35-3.75,5.02-1.61,1.64-4.41-6.91-4.95-13.6-.01,0-.14,.1-.35,.22-.21,.12-.48,.26-.79,.36-.75,.26-1.68,.28-2.14-.81-.02-.05-.04-.11-.06-.17,0,0,0-.01,0-.02-.01-.03-.02-.06-.03-.08v-.02c-.99-2.81-1.37-8.4-.41-11.65,.99-3.31,8.13-5.46,18.62-15.1,.01-.01,.02-.02,.03-.03,.12,.4,.23,.84,.33,1.22,.15,.58,.31,1.2,.51,1.85-.01,.01-.02,.03-.03,.04-9.8,13.44-18.67,17.15-18.67,17.15,.37,6.81,.77,7.43,7.12,1.93,4.51-3.92,11.25-12.79,13.14-15.33,.31,.52,.61,.98,.91,1.4-4.84,9.7-16.41,21.58-16.41,21.58,2.73,13.37,3.43,8.14,9.05-.14,3.81-5.61,8.82-16.27,9.91-18.6,.24,.22,.48,.43,.71,.63,.12,.11,.24,.21,.36,.32-5.11,11.76-11.52,21.59-11.52,21.59,6.45,14.24,7.14,10.69,9.22,5.01,1.43-3.93,5.09-12.72,7.23-17.79-3.24,8.79-5.02,16.57-5.02,16.57,4.34,9.76,10.66,13.89,12.3,13.94,1.64-.04,7.96-4.18,12.3-13.94,0,0-1.78-7.79-5.02-16.57,2.13,5.07,5.79,13.86,7.23,17.79,2.08,5.68,2.77,9.23,9.22-5.01,0,0-6.41-9.83-11.52-21.59,.12-.11,.24-.21,.36-.32,.23-.2,.47-.41,.71-.63,1.08,2.34,6.1,13,9.91,18.6,5.62,8.28,6.32,13.51,9.05,.14,0,0-11.56-11.88-16.41-21.58,.3-.42,.61-.89,.91-1.4,1.89,2.54,8.63,11.41,13.14,15.33,6.35,5.5,6.74,4.89,7.12-1.93,0,0-8.87-3.71-18.67-17.15-.01-.02-.02-.03-.03-.04,.2-.65,.36-1.27,.51-1.85,.1-.38,.21-.81,.33-1.22,.01,.01,.02,.02,.03,.03,10.49,9.64,17.64,11.79,18.62,15.1Zm-15.96-24.83l1.29,2.24c1.45,2.52,.27,4.58-2.64,4.58h-.67c-.96,0-1.02-.71-1.02-.71-2.32,2.14-5.91,.09-6.06,0,.47,1.2,1.24,1.84,2.03,2.15h0c1.16,.36,1.7,4.71-.71,7.66-1.71,2.1-2.97,3.41-3.55,4.57-.23,.46-.36,.91-.36,1.37v.02c-.01,1.94-1.59,3.51-3.54,3.51s-3.53-1.58-3.53-3.53c0-1.21,.61-2.27,1.53-2.91,0,0,0,0,.01,0,0,0,.01-.01,.02-.01,.02-.02,.04-.03,.07-.05,3.34-1.22,5.79-5.05,5.95-5.27-1.63,1.9-3.34,2.9-4.56,3.41,.52-1.14,.83-2.63,.83-4.25,0-1.84-.4-3.5-1.06-4.7,1.38,.04,3.38-.31,5.21-1.94-.08,.03-3.91,1.24-6.75,.28-.02,0-.04-.02-.05-.03-1.37-.73-1.7-2.32-.64-4.14l1.29-2.24c.73-1.26,1.69-1.89,2.65-1.89s1.92,.63,2.64,1.89l.33,.57,.33-.57c.73-1.26,1.68-1.89,2.64-1.89s1.92,.63,2.64,1.89l.21,.35,.2-.35c.73-1.26,1.69-1.89,2.65-1.89s1.92,.63,2.64,1.89Zm-2.95-3.97c.1-.01,.2-.01,.31-.01,.05,0,.11,0,.16,0-.15,0-.31,0-.46,0Zm140.19-72.45l-2.44,1.41,2.77,.52c2.64,.5,6.9,1.74,7.65,2.84,.17,.24,.32,1.28-.26,2.95-.66,1.91-2.04,3.87-3.87,5.53-2.4,2.18-5.55,3.88-9.35,5.05l-2.76,.85,2.66,1.12s1.95,.82,3.93,1.86c3.31,1.74,3.91,2.59,4.01,2.77-.15,1.32-.82,4.62-15.91,9.45l-2.28,.73,2.09,1.17s1.12,.63,2.19,1.47c1.49,1.16,1.78,1.84,1.77,1.99-.01,.05-.02,.11-.03,.17-.15,.81-.31,1.66-2.52,2.86-3,1.63-8.8,3.24-17.25,4.8l-2.32,.43,1.87,1.43s1.51,1.16,2.93,2.56c2.53,2.48,2.4,3.36,2.39,3.39-.13,.73-1.2,1.89-3.77,2.75-2.3,.77-6.64,1.58-14.22,1.01l-3.08-.23,2.31,2.05c1.02,.91,3.67,3.74,3.67,5.92,0,.09,0,.37-.47,.73-2.2,1.68-9.87,2.03-21.49-1.16l-2.17-.6,.95,2.04s1.02,2.22,1.87,4.62c1.52,4.31,1.09,5.26,1.06,5.32-.94,1.15-7.68,3.33-17.6-2.94l-2.25-1.42,1.39,6.31c.73,3.31-.22,3.72-.22,3.72-1.16,.91-2.66,.93-5.52,.31-2.4-.53-6.16-2.06-10.43-6.36l-1.83-1.85,.04,2.61s.03,1.6-.22,3.24c-.32,2.22-.9,2.97-1.19,3.06-.65,.21-1.53,.2-3.51-1.34-2.07-1.6-4.99-4.57-9.47-9.64l-1.59-1.79-.24,2.38c-.09,.91-.66,3.6-2.03,3.94-.45,.11-1.3,.33-3.06-1.56-1.66-1.79-4.5-6.29-7.59-11.76-.15-.33-.3-.66-.45-1,0,0-5.1-7.74-5.1-16.26-.02-.52-.04-1.05-.04-1.57,0-.13,0-.26,0-.38,.02-1.52,.13-3.04,.33-4.56,.11-.81,.24-1.63,.41-2.43,.04-.18,.05-.7,.18-.86-.23,.25-3.17,3.55-3.18,8.4,0,3.31,1.11,6.09,.24,11.22-.53,3.12-2.22,5.5-3.91,7.61-.52,.57-.87,.51-1.06,.36-.16-.13-.1-.52,.19-1.04,0,0,0,0,0,0,.04-.08,.09-.16,.14-.25,2.59-4.45,5.04-8.73,2.01-16.86,.04,.19,2.4,11.08-2.69,12.24-5.07,1.16-.99-4.75-.9-4.89-.13,.11-5.12,4.46-3.14,6.62,2,2.18,.44,4.4-2.71,4.54s-3.81-2.68-2.18-5.39c0,0-3.88,2.67-1.73,6.65,1.62,3-4.9,6.18-8.22,2.7-.01-.01-.02-.02-.03-.03-.07-.07-.26-.27-.47-.58,0,0,0,0,0-.01-.03-.05-.06-.1-.09-.14-.7-1.15-1.44-3.5,1.28-6.56,1.6-1.79,1.25-4,.25-4.67-.96-.65-.13-1.86-.07-1.94-.1,.06-2.1,1.21-1.12,2.65,1.01,1.48-.22,2.97-1.95,2.97s-3.49-1.51-2.13-3.22c1.36-1.71,1.6-3.58-1.78-4.48,0,0,2.47,1.15,1.29,2.59-1.18,1.43-4.16,2.96-1.13,5.89,3.01,2.92,4.23,4.55,2.79,6.9-3.1,4.48-10.45,1.1-8.75-2.06,2.15-3.98-1.73-6.65-1.73-6.65,1.63,2.72,.97,5.53-2.18,5.39s-4.72-2.36-2.71-4.54c1.98-2.16-3.01-6.51-3.14-6.62,.09,.13,4.17,6.05-.9,4.89-5.09-1.17-2.73-12.06-2.69-12.24-3.03,8.13-.58,12.41,2.01,16.86,.05,.08,.1,.16,.14,.25,0,0,0,0,0,0,.29,.53,.35,.91,.19,1.04-.18,.15-.54,.22-1.05-.36-1.69-2.11-3.38-4.49-3.91-7.61-.87-5.13,.24-7.92,.24-11.22,0-4.84-2.96-8.15-3.18-8.4,.13,.16,.14,.68,.18,.86,.16,.8,.3,1.62,.41,2.43,.2,1.51,.32,3.03,.33,4.56,0,.65,0,1.3-.03,1.95,0,4.26-1.28,8.33-2.55,11.33-1.28,3-2.55,4.94-2.55,4.94-.15,.33-.3,.67-.45,1-3.08,5.46-5.93,9.96-7.59,11.76-1.75,1.9-2.6,1.68-3.06,1.56-1.36-.35-1.93-3.03-2.02-3.94l-.24-2.38-1.58,1.79c-4.48,5.07-7.4,8.04-9.47,9.64-1.99,1.54-2.86,1.55-3.51,1.34-.29-.09-.87-.85-1.19-3.06-.24-1.63-.22-3.22-.22-3.24l.04-2.61-1.83,1.85c-4.27,4.31-8.03,5.84-10.42,6.36-2.86,.63-4.36,.6-5.52-.31,0,0-.96-.41-.22-3.72l1.39-6.31-2.25,1.42c-9.92,6.27-16.66,4.09-17.6,2.94-.03-.05-.45-1.01,1.06-5.32,.85-2.4,1.86-4.6,1.87-4.62l.95-2.04-2.17,.6c-11.63,3.19-19.29,2.84-21.49,1.16-.47-.36-.47-.64-.47-.73,0-2.17,2.65-5.01,3.67-5.92l2.31-2.05-3.08,.23c-7.58,.57-11.92-.24-14.22-1.01-2.57-.86-3.64-2.02-3.77-2.75,0-.04-.13-.91,2.39-3.39,1.42-1.4,2.92-2.55,2.93-2.56l1.87-1.43-2.32-.43c-8.45-1.56-14.25-3.18-17.25-4.8-2.21-1.2-2.37-2.04-2.52-2.86-.01-.06-.02-.12-.03-.17-.02-.15,.27-.83,1.77-1.99,1.07-.83,2.18-1.46,2.19-1.47l2.09-1.17-2.28-.73c-15.08-4.83-15.76-8.13-15.91-9.45,.09-.18,.69-1.03,4.01-2.77,1.98-1.04,3.91-1.85,3.93-1.86l2.66-1.12-2.76-.85c-3.8-1.17-6.95-2.87-9.35-5.05-1.83-1.67-3.21-3.63-3.87-5.53-.58-1.67-.43-2.71-.26-2.95,.75-1.09,5.01-2.34,7.65-2.84l2.77-.52-2.44-1.41c-6.97-4.03-9.24-8.07-9.93-10.74-.57-2.21-.1-3.66,.12-4.03,0,0,.49-.62,3.7-.94,1.79-.18,3.47-.17,3.49-.17l2.6,.02-1.86-1.81c-3.05-2.98-5.24-5.77-6.51-8.27-.96-1.89-1.37-3.58-1.25-5.03,.15-1.67,.96-2.43,1.17-2.6,.27-.07,1.52-.26,6.79,.22,3.03,.28,5.87,.64,5.9,.64l1.9,.24-.82-1.73c-7.81-16.4-7.43-18.16-6.46-20.38,.3-.07,1.34-.14,4.4,.62,2.16,.54,4.95,1.4,8.3,2.56,5.73,1.98,11.14,4.18,11.2,4.2l1.99,.81-.59-2.06c-3.73-13.02-2.91-16.12-1.39-17.37,.37-.01,2.3,.25,9.89,4.84,4.32,2.62,8.33,5.34,8.37,5.36l1.59,1.08,.04-1.92c.11-4.72,.4-8.14,.9-10.45,.5-2.32,1.09-2.96,1.4-3.13,.38-.22,1.01-.04,2.12,.59,4.17,2.36,20.52,23.34,28.06,33.08,2.01,2.88,3.68,3.22,4.06,9.01,0,0,1.7-2.28,1.26-4.93,.22,.38,.45,.78,.7,1.2,1.7,2.77,4.5,6.57,9.02,11.02,.42,.42,.87,.85,1.32,1.28,.45,.42,.91,.85,1.39,1.28,.44,.4,.9,.8,1.36,1.21,.48,.41,.97,.83,1.47,1.25,.53,.44,1.07,.89,1.63,1.34,.56,.45,1.13,.91,1.73,1.36l.05,.04c.56,.43,1.09,.85,1.62,1.27,.57,.46,1.12,.91,1.66,1.36,.55,.46,1.08,.92,1.59,1.38,.53,.47,1.05,.94,1.54,1.41,.52,.49,1.02,.97,1.5,1.45,.5,.51,.99,1,1.45,1.49,.49,.52,.95,1.03,1.4,1.54,.46,.53,.91,1.06,1.34,1.58,.45,.55,.88,1.1,1.28,1.64,.46,.61,.89,1.2,1.3,1.8,.41,.59,.79,1.17,1.16,1.74,.39,.61,.76,1.22,1.12,1.82,.36,.62,.72,1.23,1.05,1.83,.36,.64,.7,1.27,1.03,1.9,.34,.63,.67,1.26,.99,1.89,.13,.24,.25,.48,.38,.73,.2,.38,.4,.77,.6,1.15,.33,.63,.66,1.26,1,1.89,.35,.64,.7,1.29,1.07,1.92,.35,.61,.7,1.21,1.08,1.81,.41,.67,.85,1.33,1.31,1.99,.39,.56,.8,1.12,1.23,1.68,.08,.11,.16,.21,.25,.32,.03,.04,.06,.08,.09,.12,0,0,.01,.01,.02,.02,.58,.73,1.1,1.42,1.59,2.08h0c3.77,5.18,4.53,8.25,4.97,10.53,.23,1.19,.38,2.16,.82,3.11,1.38,2.74,3.92,3.49,3.46,4.06-.61,.76-2.81-1.32-2.93-1.43,2.03,3.74,6.25,3.25,6.25,4.03,0,1.44-2.37,.35-2.46,.31,1.85,1.54,4.06,1.09,5.43,1.58,2.66,.94,.36,1.61,.36,1.61,2.17,.37,2.2-.66,4.49-.28,2.29,.38-.9,1.16-.9,1.16,2.86,.42,3.38-1.04,4.71-1.04s-.47,1.04-.47,1.04c1.98,0,2.34-1.18,3.43-1.18s0,.97,0,.97c1.84-.13,2.44-.85,2.59-1.09,0,0,0,0,0,0,0,0,0,0,0,0,.39,.83,1.15,1.23,1.53,1.26,.38-.03,1.13-.42,1.53-1.26,0,0,0,0,0,0,0,0,0,0,0,0,.15,.24,.75,.97,2.59,1.09,0,0-1.09-.97,0-.97s1.45,1.18,3.43,1.18c0,0-1.8-1.04-.47-1.04s1.86,1.46,4.71,1.04c0,0-3.19-.78-.9-1.16,2.29-.38,2.32,.64,4.49,.28,0,0-2.3-.67,.36-1.61,1.36-.48,3.58-.04,5.43-1.58-.09,.04-2.46,1.13-2.46-.31,0-.78,4.23-.29,6.25-4.03-.12,.11-2.32,2.19-2.93,1.43-.46-.57,2.08-1.32,3.46-4.06,.44-.95,.59-1.92,.82-3.11,.44-2.28,1.2-5.35,4.97-10.52h0c.49-.66,1.02-1.36,1.59-2.09,0,0,.01-.01,.02-.02,.03-.04,.06-.08,.09-.12,.08-.11,.17-.21,.25-.32,.43-.56,.84-1.12,1.23-1.68,.46-.66,.89-1.33,1.31-1.99,.37-.6,.73-1.2,1.08-1.81,.37-.64,.72-1.28,1.07-1.92,.34-.63,.67-1.26,1-1.89,.2-.38,.4-.76,.6-1.15,.12-.24,.25-.48,.38-.73,.33-.63,.65-1.26,.99-1.89,.33-.63,.68-1.27,1.03-1.9,.34-.61,.69-1.22,1.05-1.83,.36-.61,.73-1.21,1.12-1.82,.37-.58,.76-1.16,1.16-1.74,.41-.6,.84-1.19,1.3-1.8,.41-.54,.83-1.09,1.29-1.64,.42-.52,.87-1.05,1.33-1.58,.45-.51,.91-1.02,1.4-1.54,.46-.49,.95-.99,1.45-1.49,.48-.48,.98-.96,1.5-1.45,.49-.47,1.01-.94,1.54-1.41,.51-.45,1.04-.91,1.59-1.38,.53-.45,1.08-.91,1.65-1.36,.52-.42,1.06-.85,1.62-1.27,.02-.01,.03-.03,.05-.04,.59-.45,1.17-.91,1.73-1.36,.56-.45,1.1-.9,1.63-1.34,.51-.42,1-.84,1.47-1.25,.47-.41,.92-.81,1.36-1.21,.48-.43,.94-.86,1.39-1.28,.46-.43,.9-.86,1.33-1.28,4.51-4.45,7.31-8.25,9.01-11.02,.25-.41,.49-.81,.7-1.2-.44,2.65,1.26,4.93,1.26,4.93,.38-5.78,2.05-6.13,4.06-9.01,7.53-9.74,23.88-30.72,28.06-33.08,1.11-.63,1.75-.8,2.12-.59,.31,.18,.9,.81,1.4,3.13,.49,2.31,.79,5.73,.9,10.45l.05,1.92,1.59-1.08s4.05-2.75,8.37-5.36c7.59-4.6,9.52-4.85,9.89-4.84,1.52,1.26,2.34,4.35-1.39,17.37l-.59,2.06,1.99-.81c.05-.02,5.47-2.22,11.2-4.2,3.35-1.16,6.14-2.02,8.3-2.56,3.06-.76,4.1-.69,4.4-.62,.97,2.22,1.34,3.98-6.47,20.38l-.82,1.73,1.9-.24s2.88-.36,5.91-.64c5.27-.48,6.52-.29,6.78-.22,.21,.17,1.02,.94,1.17,2.6,.13,1.45-.29,3.15-1.25,5.03-1.27,2.5-3.46,5.29-6.51,8.27l-1.85,1.81,2.59-.02s1.7-.01,3.49,.17c3.21,.32,3.7,.94,3.7,.94,.23,.37,.69,1.82,.13,4.03-.69,2.67-2.96,6.71-9.93,10.74Z"/><path class="cls-2" d="M178.08,267.03c-1.43-.45-1.84-1.37-.78-1.72,1.06-.36,3.66-2.24,3.66-2.24-.32,2.05-1.45,4.42-2.88,3.97Z"/><path class="cls-2" d="M181.27,249.1s-1.58-2.57-2.4-3.28c-.82-.71-.07-1.31,1.42-1.13,1.49,.17,1.53,2.58,.98,4.41Z"/><path class="cls-2" d="M187.54,248.88s-1.74-2.43-2.6-3.07c-.86-.63-.15-1.3,1.34-1.26,1.49,.04,1.69,2.45,1.27,4.33Z"/><path class="cls-2" d="M193.19,248.74s-1.91-2.3-2.81-2.86c-.9-.56-.25-1.29,1.23-1.37,1.49-.08,1.86,2.32,1.58,4.23Z"/><path class="cls-2" d="M172.68,236.52c.21,.31,.39,.51,.47,.58-.16-.18-.32-.37-.47-.58Z"/><path class="cls-2" d="M302.94,222.96c-.64,.28-1.74,.65-3.47,.97-2.44,.46-5.38,.72-8.27,.72-1.13,0-2.22-.04-3.26-.12-.99-.08-1.9-.18-2.69-.32h0c-.6-.1-1.15-.22-1.66-.35-2.19-.57-5.06-4.13-9.04-9.06-2.43-3.02-7.85-9.48-11.54-13.61,1.69-1.72,2.44-2.84,3.31-4.36,6.05,4.61,12.25,9.73,15.84,12.95,6.24,5.58,10.01,8.95,14.57,9.26,.56,.04,1.14,.06,1.74,.06,.17,0,.35,0,.54,0,1.65,1.53,3.03,2.88,3.92,3.85Z"/><path class="cls-2" d="M287.92,233.81c-.82,.2-2.24,.39-4.49,.39-4.92,0-10.71-.93-14.09-2.27-.11-.04-.21-.09-.32-.13h0c-.63-.27-1.31-.87-2.06-1.82l-.06-.07c-1.31-1.69-2.74-4.31-4.53-7.62-1.1-2.03-4.24-7.51-5.66-9.98,1.41-1.55,2.82-2.61,3.88-4.21,2.87,3.29,7.08,8.12,9.1,10.63,5.07,6.29,8.14,10.09,12.32,11.17,1.07,.28,2.27,.5,3.58,.66,.95,1.26,1.76,2.39,2.32,3.25Z"/><path class="cls-2" d="M330.27,193.16c-.6,.6-1.89,1.59-4.36,2.85-2.92,1.49-6.53,2.86-9.89,3.75-.91,.24-1.8,.44-2.63,.61-1.26,.24-2.4,.39-3.4,.44-.06,0-.13,0-.19,0-2.67,0-7.09-2.78-13.2-6.62-5.94-3.74-15.88-9.64-26.64-14.97,.4-1.51,.63-2.79,.74-3.86,5.78,2.29,26.16,10.7,34.25,13.97,9.21,3.72,16.28,5.72,22.91,2.57,.97,.48,1.78,.9,2.42,1.26Z"/><path class="cls-2" d="M318,207.87c-.84,.59-2.63,1.56-5.92,2.61-3.76,1.2-8.09,2.07-11.6,2.32h-.07c-.67,.05-1.31,.08-1.92,.08-.3,0-.59,0-.87-.02-.15,0-.31-.02-.47-.03-2.43-.17-5.95-3.32-10.83-7.69-3.65-3.27-12.66-11.69-19.67-17.23,.71-1.51,1.31-2.9,1.8-4.17,9.4,4.94,19.53,12.41,24.81,15.73,7.52,4.73,12.06,7.58,16.53,7.58,.19,0,.37,0,.53-.01,1.63-.09,3.45-.35,5.43-.79,1.04,.72,1.75,1.25,2.24,1.63Z"/><path class="cls-2" d="M267.74,244.4c-.82,.17-1.68,.26-2.56,.26-3.67,0-7.76-1.51-10.98-4.05l-.21-.17c-.83-.68-1.58-1.4-2.2-2.15h-.01c-.14-.18-.26-.33-.37-.48l-.06-.07-.06-.07c-.39-.43-.75-.87-1.08-1.31-.21-.33-.4-.73-.59-1.22-.21-.54-.4-1.16-.54-1.64v-.03s-.02-.03-.02-.03c-.81-2.45-1.88-6.68-2.42-8.97,2.09-1.09,6.06-2.65,8.6-4.51,5.61,14.72,9.93,16.83,10.02,16.88h0c.49,1.32,.94,2.61,1.36,3.93,.17,.51,.33,1.02,.48,1.52,.11,.75,.38,1.47,.63,2.11Z"/><path class="cls-2" d="M249.45,249.44c-.12,0-.25,0-.37,0-2.08,0-4.31-.57-6.45-1.66-2.02-1.02-3.92-2.47-5.49-4.19-.66-.72-1.25-1.48-1.74-2.23h0c-3.6-4.68-4.45-10.37-5.03-13.25,2.33-.04,6.03-.16,10.5-1.47,.48,1.87,1.6,6.71,2.24,8.69,.16,.53,.39,1.3,.69,2.06,.35,.91,.75,1.7,1.21,2.41l.02,.03,.03,.04s.06,.09,.11,.15c.43,.58,.89,1.15,1.38,1.69,.67,.86,1.43,1.69,2.26,2.47,.06,.44,.13,.89,.18,1.34h0c.06,.48,.13,.99,.2,1.62-.03,.79,.12,1.56,.25,2.26,0,.01,0,.02,0,.03Z"/><path class="cls-2" d="M336.27,173.68c-1.41,5.27-7.21,8.73-12.62,9.87-1.24,.26-2.48,.41-3.69,.44-.1,0-.2,0-.3,0h-.18c-.69,.07-1.41,.1-2.13,.1h-.02c-.55-.04-1.18-.14-1.92-.31-.6-.14-1.29-.33-2.24-.62h-.05c-4.08-1.16-7.83-2.39-11.45-3.77-.45-.17-.91-.35-1.35-.52-.31-.12-.62-.24-.93-.36l-.05-.02-.05-.02c-3.92-1.27-7.94-2.82-11.84-4.32-.68-.26-1.36-.52-2.04-.79-.02,0-.03-.01-.05-.02-10.1-3.78-20.4-5.79-22.58-6.19,.15-.52,.39-1.07,.61-1.52,0,0,0,0,0,0,.3-.52,.53-.98,.54-1.01,0,0,0,0,0,0,1.98,.31,4.03,.7,6.04,1.1,5.87,1.19,11.44,2.62,14.13,3.33,.04,.01,.08,.02,.12,.03,.06,.02,.12,.03,.18,.05,.43,.12,.86,.23,1.3,.35,.05,.01,.08,.02,.08,.02,5.97,1.61,12.96,3.47,18.55,4.89,12.33,3.12,25.33,7.99,29.78-1.25,.44,.13,.89,.23,1.3,.33,.26,.06,.59,.14,.88,.22Z"/><path class="cls-2" d="M336.23,141.99c-1.19,2.26-3.15,4.46-5.5,6.18-.85,.62-1.73,1.17-2.62,1.63-.64,.33-1.27,.62-1.88,.85l-.08,.03-.07,.03c-.63,.3-1.27,.58-1.9,.81-.5,.15-1.11,.28-1.81,.37-.6,.08-1.28,.14-2.21,.2h-.03s-.03,0-.03,0c-4.03,.35-7.78,.52-11.45,.52h-.07c-.46,0-.92,0-1.39,0-.32,0-.64,0-.96,0h-.06s-.06,0-.06,0c-2.97,.15-5.96,.17-8.23,.17-1.28,0-2.58,0-3.84-.01-1.27,0-2.58-.01-3.87-.01-3.01,0-5.31,.04-7.44,.13-.66,.03-1.27,.06-1.85,.09,0,0-10.02,.76-16.85,1.59-.13-.39-.37-1.04-.64-1.56,2.71-.61,10.79-2.05,33.84-3.9,3.89-.31,8.22-.64,13.05-.99,12.37-.88,24.53-2.33,25.21-11.96,.45-.04,.9-.1,1.31-.15,.27-.04,.53-.07,.77-.1,.18,1.97-.27,4-1.35,6.06Z"/><path class="cls-2" d="M264.68,161.12c3.37,.07,14.76,.84,28.57,2.88,0,0,0,0,0,0,13.09,2.13,25.17,4.22,29.23,3.53,.68-.12,1.36-.26,2.01-.44l.08-.02h.08c.45-.1,.92-.2,1.39-.32,1.04-.27,2.08-.64,3.11-1.1,2.73-1.22,5.16-3.02,6.84-5.05,1.51-1.83,2.4-3.84,2.6-5.85-.26-.02-.54-.04-.77-.05-.5-.03-1.03-.06-1.56-.13-1.58,7.75-11.88,7.23-19.79,7.18-3.44-.02-13.31-.89-23.38-1.86-.02,0-.04,0-.06,0-.57-.06-1.14-.11-1.72-.17-12.01-1.12-22.81-1.02-26.52-.85,0,0,.13,1.02-.13,2.24Z"/><path class="cls-2" d="M324.8,128.99q-2.76,5.04-30.42,10.87c-12.27,2.58-32.47,10.07-32.47,10.07-.22-.28-.45-.56-.68-.83,.13-.07,18.02-8.93,42.66-14.9,16.82-4.08,17.06-7.44,19.81-10.97,2.76-3.54,4.16-7.75,4.16-7.75l1.61-.62c1.51,1.82-4.68,14.14-4.68,14.14Z"/><path class="cls-2" d="M305.03,116.19c-2.35,8.32-2.63,8.55-23.4,18.04-15.66,7.16-25.32,15.07-28.62,17.24,.07-.51,.04-1.01-.01-1.32,10.32-9.26,24.01-17.18,38.16-24.3,14.68-7.38,13.61-21.53,13.61-21.53,.47-.47,1.56-.99,1.56-.99,.63,.99,1.3,3.62-1.3,12.84Z"/><path class="cls-2" d="M271.82,129.93c-7.2,5.33-17.89,14.4-20.43,16.87-.04-.46-.13-1.28-.38-1.73,5.39-6.26,19.93-17.98,27.32-24.34,7.9-6.81,4.81-19.91,4.81-19.91,.44-.57,1.12-1.04,1.12-1.04,.42,.57,.99,2.43,1.14,11.75,.16,9.91-4.16,11.44-13.57,18.41Z"/><path class="cls-2" d="M234.8,188.04c-.56,.82-1.67,2.27-3.27,3.52-5.13,4.02-7.68,3.72-9.71,3.23-2.03-.48-4.92-1.45-4.92-1.45,1.64-2,1.73-4.26,1.73-4.26,11.25,2.36,14.64-2.2,14.64-2.2,0,0,.56,.45,1.53,1.16Z"/><path class="cls-2" d="M208.02,198.91s1.29-1.92,3.05-2.32c1.76-.39,3.33-1.19,3.79-1.67,0,0,8.66,3.86,13.11,1.43l.76,.64s-8.74,7.96-14.58,5.51c-4.31-1.8-6.14-3.59-6.14-3.59Z"/><path class="cls-2" d="M201.73,203.97s.32-.55,1.16-.81,3.17-1.19,4.22-3.2c0,0,6.98,5.44,13.38,3.84l.89,1.52s-10.45,4.36-15.55,1.54c-3.15-1.74-4.1-2.9-4.1-2.9Z"/><path class="cls-2" d="M201.73,203.97s-1.13,3.07-1.06,7.27c0,0,4.61,1.21,9.78-.16l-1.26-2.21s-3.67,.02-7.46-4.91Z"/><path class="cls-2" d="M226.63,246.42c-9.48-7.27-16.23-22.15-17.01-23.98,0,0,0,0,0,0,.34,1.33,.85,2.79,1.4,4.15,1.06,2.66,2.23,4.97,2.34,5.21,0,0,0,.02,0,.02,1.2,2.77,3.39,6,3.39,6-.49,14.07-6.69,0-11.19-8.35-.53-.99-1.01-1.97-1.43-2.94-3.16-7.2-3.45-13.46-3.46-13.77,5.43,1.4,10.51-.28,10.51-.28,7.43,13,14.03,15.33,17.09,15.63,.22,1.6,.91,4.46,1.12,5.35,.78,2.94,2,5.48,2.95,7.22,0,0,0,0,0,0,.83,12.69-1.53,8.95-5.72,5.73Z"/><path class="cls-2" d="M222.54,206.97s-.02-.03-.03-.04c0,.01,.02,.03,.03,.04Z"/><path class="cls-2" d="M233.99,217.09c-.16-.07-.32-.15-.48-.23,.16,.08,.32,.16,.48,.23Z"/><path class="cls-2" d="M233.51,183.92c-2.66,3.33-3.64,3.95-12.96,3.43,0,0,2.33-1.65,3.6-3.44,.51-.23,6.73-1.42,13.1-4.5l-3.74,4.51Z"/><path class="cls-2" d="M233.99,217.09c-.16-.07-.32-.15-.48-.23,.16,.08,.32,.16,.48,.23Z"/><path class="cls-2" d="M248.73,151.04c-.73,1.82-2,3.74-4.11,5.54,0,0,0,0,0,0-.11,.1-.23,.19-.35,.29h0s0,0,0,0c-.08,.07-2.51,2.44-5.2,4.13-11.04,6.93-12.77,12-10.52,12.82,1.96,.72,4.96-3.24,5.29-6.22,0,.1,.96,5.08-5.25,9.31-2.54,1.73-3.67,2.48-4.55,3.81-.88,1.33-1.51,3.81-6.39,6.46,0,0,0,0,0,0-.14,.08-.28,.15-.42,.23-7.02,3.67-5.3,8.56,.02,1.85,0,0-1.01,4.22-5.38,5.51-3.05,.9-3.75,.77-6.66,4.39-2.91,3.62-4.33-.31-6.86,6.95,0,0,.18-4.7,3.94-8.18-.02,.06-.59,2.24,.72,1.2,1.33-1.06,1.94-4.91,6.88-9.5-.04,.05-1.15,1.41,.16,1.63,1.34,.23,1.7-5.98,8.83-9.53-.11,.1-4.34,3.98-2.17,3.86,6.12-.34,6.86-9.96,6.86-9.96,0,0,.05-5.29,7.83-10.6,4.78-3.26,7.74-5.29,8.9-9.27,0,0,0-.01,0-.01,.66-2.38,.24-3.79,2.35-6.07-.03,.06-1.48,2.86-.31,4.27,.26,.31,.72,.36,1.28,.18,0,0,0,0,0,0,2.03-.87,4.32-4.02,3.76-7.35-.55-3.33-.07-5.22,1.39-6.9-.03,.07-1.5,3.1-.42,5.82,.21,.54,.4,1.12,.52,1.75,.21,1.09,.22,2.29-.15,3.58Z"/><path class="cls-2" d="M211.55,183.33s3.69-8.94,8.99-15.34c5.31-6.4,14.68-13.42,14.68-13.42,0,0-14.31,14.41-23.67,28.76Z"/><path class="cls-2" d="M259.63,206.89c-12.65,12.27-23.12,8.57-23.12,8.57-.91-.33-1.8-.72-2.7-1.12-6.97-3.1-11.42-11.27-11.42-11.27,5.87-2.55,7.65-4.83,7.65-4.83,19.65,16.64,28.25,7.09,28.25,7.09l1.35,1.56Z"/><path class="cls-2" d="M254.38,217.65c-2.07,1.51-10.72,7.43-19.16,7.82-9.68,.44-12.79,.89-23.3-16.57,0,0,6.72,.02,10.56-2.01,0,0,0,0,0,0,0,0,0,0,0,.01,0,0,0,0,0,0,0,0,0,.01,.01,.02,0,.01,.02,.03,.03,.04,3.68,5.91,11.46,10.12,11.46,10.12,5.18,2.41,11.84,2.98,19.44-2.19,.32,.96,.64,1.87,.95,2.75Z"/><path class="cls-2" d="M267.43,191.87s-6.01,12.29-15.35,13.11h0c-1.1,.16-2.27,.22-3.54,.19-7.45-.21-18.82-10.02-18.82-10.02,0,0,0,0,0,0,.22-.12,4.43-2.53,6.74-5.94,6.82,4.63,22.69,13.52,29.03,1.07l1.94,1.59Z"/><path class="cls-2" d="M226.13,181.71s.62-.94,3.12-2.55c2.5-1.61,8.68-6.24,6.66-13.47,0,0,7.96,3.85,1.98,11.7,0,0-4.78,2.34-11.75,4.32Z"/><path class="cls-2" d="M236.27,183.46s31.19,19.11,32.76-13.56l-2.11-.21s-.75,21.73-26.8,8.04c0,0-2.56,4.41-3.84,5.73Z"/><path class="cls-2" d="M259.08,149.11s15.77,20.24-17.37,21.87c0,0,.02-3.02-1.6-4.23,0,0,28.81-.54,17.69-16.82l1.28-.82Z"/><path class="cls-2" d="M164.59,267.03c1.43-.45,1.84-1.37,.78-1.72-1.06-.36-3.66-2.24-3.66-2.24,.32,2.05,1.45,4.42,2.88,3.97Z"/><path class="cls-2" d="M161.4,249.1s1.58-2.57,2.4-3.28c.82-.71,.07-1.31-1.42-1.13-1.49,.17-1.53,2.58-.98,4.41Z"/><path class="cls-2" d="M155.14,248.88s1.74-2.43,2.6-3.07c.86-.63,.15-1.3-1.34-1.26-1.49,.04-1.69,2.45-1.27,4.33Z"/><path class="cls-2" d="M149.49,248.74s1.91-2.3,2.81-2.86c.9-.56,.25-1.29-1.23-1.37-1.49-.08-1.86,2.32-1.58,4.23Z"/><path class="cls-2" d="M39.74,222.96c.64,.28,1.74,.65,3.47,.97,2.44,.46,5.38,.72,8.27,.72,1.13,0,2.22-.04,3.26-.12,.99-.08,1.9-.18,2.69-.32h0c.6-.1,1.15-.22,1.66-.35,2.19-.57,5.06-4.13,9.04-9.06,2.43-3.02,7.85-9.48,11.54-13.61-1.69-1.72-2.44-2.84-3.31-4.36-6.05,4.61-12.25,9.73-15.84,12.95-6.24,5.58-10.01,8.95-14.57,9.26-.56,.04-1.14,.06-1.74,.06-.17,0-.35,0-.54,0-1.65,1.53-3.03,2.88-3.92,3.85Z"/><path class="cls-2" d="M54.76,233.81c.82,.2,2.24,.39,4.49,.39,4.92,0,10.71-.93,14.09-2.27,.11-.04,.21-.09,.32-.13h0c.63-.27,1.31-.87,2.06-1.82l.06-.07c1.31-1.69,2.74-4.31,4.53-7.62,1.1-2.03,4.24-7.51,5.66-9.98-1.41-1.55-2.82-2.61-3.88-4.21-2.87,3.29-7.08,8.12-9.1,10.63-5.07,6.29-8.14,10.09-12.32,11.17-1.07,.28-2.27,.5-3.58,.66-.95,1.26-1.76,2.39-2.32,3.25Z"/><path class="cls-2" d="M12.41,193.16c.6,.6,1.89,1.59,4.36,2.85,2.92,1.49,6.53,2.86,9.89,3.75,.91,.24,1.8,.44,2.63,.61,1.26,.24,2.4,.39,3.4,.44,.06,0,.13,0,.19,0,2.67,0,7.09-2.78,13.2-6.62,5.94-3.74,15.88-9.64,26.64-14.97-.4-1.51-.63-2.79-.74-3.86-5.78,2.29-26.16,10.7-34.25,13.97-9.21,3.72-16.28,5.72-22.91,2.57-.97,.48-1.78,.9-2.42,1.26Z"/><path class="cls-2" d="M24.68,207.87c.84,.59,2.63,1.56,5.92,2.61,3.76,1.2,8.09,2.07,11.6,2.32h.07c.67,.05,1.31,.08,1.92,.08,.3,0,.59,0,.87-.02,.15,0,.31-.02,.47-.03,2.43-.17,5.95-3.32,10.83-7.69,3.65-3.27,12.66-11.69,19.67-17.23-.71-1.51-1.31-2.9-1.8-4.17-9.4,4.94-19.53,12.41-24.81,15.73-7.52,4.73-12.06,7.58-16.53,7.58-.19,0-.37,0-.53-.01-1.63-.09-3.45-.35-5.43-.79-1.04,.72-1.75,1.25-2.24,1.63Z"/><path class="cls-2" d="M74.94,244.4c.82,.17,1.68,.26,2.56,.26,3.67,0,7.76-1.51,10.98-4.05l.21-.17c.83-.68,1.58-1.4,2.2-2.15h.01c.14-.18,.26-.33,.37-.48l.06-.07,.06-.07c.39-.43,.75-.87,1.08-1.31,.21-.33,.4-.73,.59-1.22,.21-.54,.4-1.16,.54-1.64v-.03s.02-.03,.02-.03c.81-2.45,1.88-6.68,2.42-8.97-2.09-1.09-6.06-2.65-8.6-4.51-5.61,14.72-9.93,16.83-10.02,16.88h0c-.49,1.32-.94,2.61-1.36,3.93-.17,.51-.33,1.02-.48,1.52-.11,.75-.38,1.47-.63,2.11Z"/><path class="cls-2" d="M93.23,249.44c.12,0,.25,0,.37,0,2.08,0,4.31-.57,6.45-1.66,2.02-1.02,3.92-2.47,5.49-4.19,.66-.72,1.25-1.48,1.74-2.23h0c3.6-4.68,4.45-10.37,5.03-13.25-2.33-.04-6.03-.16-10.5-1.47-.48,1.87-1.6,6.71-2.24,8.69-.16,.53-.39,1.3-.69,2.06-.35,.91-.75,1.7-1.21,2.41l-.02,.03-.03,.04s-.06,.09-.11,.15c-.43,.58-.89,1.15-1.38,1.69-.67,.86-1.43,1.69-2.26,2.47-.06,.44-.13,.89-.18,1.34h0c-.06,.48-.13,.99-.2,1.62,.03,.79-.12,1.56-.25,2.26,0,.01,0,.02,0,.03Z"/><path class="cls-2" d="M6.41,173.68c1.41,5.27,7.21,8.73,12.62,9.87,1.24,.26,2.48,.41,3.69,.44,.1,0,.2,0,.3,0h.18c.69,.07,1.41,.1,2.13,.1h.02c.55-.04,1.18-.14,1.92-.31,.6-.14,1.29-.33,2.24-.62h.05c4.08-1.16,7.83-2.39,11.45-3.77,.45-.17,.91-.35,1.35-.52,.31-.12,.62-.24,.93-.36l.05-.02,.05-.02c3.92-1.27,7.94-2.82,11.84-4.32,.68-.26,1.36-.52,2.04-.79,.02,0,.03-.01,.05-.02,10.1-3.78,20.4-5.79,22.58-6.19-.15-.52-.39-1.07-.61-1.52,0,0,0,0,0,0-.3-.52-.53-.98-.54-1.01,0,0,0,0,0,0-1.98,.31-4.03,.7-6.04,1.1-5.87,1.19-11.44,2.62-14.13,3.33-.04,.01-.08,.02-.12,.03-.06,.02-.12,.03-.18,.05-.43,.12-.86,.23-1.3,.35-.05,.01-.08,.02-.08,.02-5.97,1.61-12.96,3.47-18.55,4.89-12.33,3.12-25.33,7.99-29.78-1.25-.44,.13-.89,.23-1.3,.33-.26,.06-.59,.14-.88,.22Z"/><path class="cls-2" d="M6.44,141.99c1.19,2.26,3.15,4.46,5.5,6.18,.85,.62,1.73,1.17,2.62,1.63,.64,.33,1.27,.62,1.88,.85l.08,.03,.07,.03c.63,.3,1.27,.58,1.9,.81,.5,.15,1.11,.28,1.81,.37,.6,.08,1.28,.14,2.21,.2h.03s.03,0,.03,0c4.03,.35,7.78,.52,11.45,.52h.07c.46,0,.92,0,1.39,0,.32,0,.64,0,.96,0h.06s.06,0,.06,0c2.97,.15,5.96,.17,8.23,.17,1.28,0,2.58,0,3.84-.01,1.27,0,2.58-.01,3.87-.01,3.01,0,5.31,.04,7.44,.13,.66,.03,1.27,.06,1.85,.09,0,0,10.02,.76,16.85,1.59,.13-.39,.37-1.04,.64-1.56-2.71-.61-10.79-2.05-33.84-3.9-3.89-.31-8.22-.64-13.05-.99-12.37-.88-24.53-2.33-25.21-11.96-.45-.04-.9-.1-1.31-.15-.27-.04-.53-.07-.77-.1-.18,1.97,.27,4,1.35,6.06Z"/><path class="cls-2" d="M78,161.12c-3.37,.07-14.76,.84-28.57,2.88,0,0,0,0,0,0-13.09,2.13-25.17,4.22-29.23,3.53-.68-.12-1.36-.26-2.01-.44l-.08-.02h-.08c-.45-.1-.92-.2-1.39-.32-1.04-.27-2.08-.64-3.11-1.1-2.73-1.22-5.16-3.02-6.84-5.05-1.51-1.83-2.4-3.84-2.6-5.85,.26-.02,.54-.04,.77-.05,.5-.03,1.03-.06,1.56-.13,1.58,7.75,11.88,7.23,19.79,7.18,3.44-.02,13.31-.89,23.38-1.86,.02,0,.04,0,.06,0,.57-.06,1.14-.11,1.72-.17,12.01-1.12,22.81-1.02,26.52-.85,0,0-.13,1.02,.13,2.24Z"/><path class="cls-2" d="M17.88,128.99q2.76,5.04,30.42,10.87c12.27,2.58,32.47,10.07,32.47,10.07,.22-.28,.45-.56,.68-.83-.13-.07-18.02-8.93-42.66-14.9-16.82-4.08-17.06-7.44-19.81-10.97-2.76-3.54-4.16-7.75-4.16-7.75l-1.61-.62c-1.51,1.82,4.68,14.14,4.68,14.14Z"/><path class="cls-2" d="M37.65,116.19c2.35,8.32,2.63,8.55,23.4,18.04,15.66,7.16,25.32,15.07,28.62,17.24-.07-.51-.04-1.01,.01-1.32-10.32-9.26-24.01-17.18-38.16-24.3-14.68-7.38-13.61-21.53-13.61-21.53-.47-.47-1.56-.99-1.56-.99-.63,.99-1.3,3.62,1.3,12.84Z"/><path class="cls-2" d="M70.86,129.93c7.2,5.33,17.89,14.4,20.43,16.87,.04-.46,.13-1.28,.38-1.73-5.39-6.26-19.93-17.98-27.32-24.34-7.9-6.81-4.81-19.91-4.81-19.91-.44-.57-1.12-1.04-1.12-1.04-.42,.57-.99,2.43-1.14,11.75-.16,9.91,4.16,11.44,13.57,18.41Z"/><path class="cls-2" d="M107.88,188.04c.56,.82,1.67,2.27,3.27,3.52,5.13,4.02,7.68,3.72,9.71,3.23,2.03-.48,4.92-1.45,4.92-1.45-1.64-2-1.73-4.26-1.73-4.26-11.25,2.36-14.64-2.2-14.64-2.2,0,0-.56,.45-1.53,1.16Z"/><path class="cls-2" d="M134.66,198.91s-1.29-1.92-3.05-2.32c-1.76-.39-3.33-1.19-3.79-1.67,0,0-8.66,3.86-13.11,1.43l-.76,.64s8.74,7.96,14.58,5.51c4.31-1.8,6.14-3.59,6.14-3.59Z"/><path class="cls-2" d="M140.94,203.97s-.32-.55-1.16-.81-3.17-1.19-4.22-3.2c0,0-6.98,5.44-13.38,3.84l-.89,1.52s10.45,4.36,15.55,1.54c3.15-1.74,4.1-2.9,4.1-2.9Z"/><path class="cls-2" d="M140.94,203.97s1.13,3.07,1.06,7.27c0,0-4.61,1.21-9.78-.16l1.26-2.21s3.67,.02,7.46-4.91Z"/><path class="cls-2" d="M116.05,246.42c9.48-7.27,16.23-22.15,17.01-23.98,0,0,0,0,0,0-.34,1.33-.85,2.79-1.4,4.15-1.06,2.66-2.23,4.97-2.34,5.21,0,0,0,.02,0,.02-1.2,2.77-3.39,6-3.39,6,.49,14.07,6.69,0,11.19-8.35,.53-.99,1.01-1.97,1.43-2.94,3.16-7.2,3.45-13.46,3.46-13.77-5.43,1.4-10.51-.28-10.51-.28-7.43,13-14.03,15.33-17.09,15.63-.22,1.6-.91,4.46-1.12,5.35-.78,2.94-2,5.48-2.95,7.22,0,0,0,0,0,0-.83,12.69,1.53,8.95,5.72,5.73Z"/><path class="cls-2" d="M120.14,206.97s.02-.03,.03-.04c0,.01-.02,.03-.03,.04Z"/><path class="cls-2" d="M108.69,217.09c.16-.07,.32-.15,.48-.23-.16,.08-.32,.16-.48,.23Z"/><path class="cls-2" d="M109.17,183.92c2.66,3.33,3.64,3.95,12.96,3.43,0,0-2.33-1.65-3.6-3.44-.51-.23-6.73-1.42-13.1-4.5l3.74,4.51Z"/><path class="cls-2" d="M108.69,217.09c.16-.07,.32-.15,.48-.23-.16,.08-.32,.16-.48,.23Z"/><path class="cls-2" d="M93.94,151.04c.73,1.82,2,3.74,4.11,5.54,0,0,0,0,0,0,.11,.1,.23,.19,.35,.29h0s0,0,0,0c.08,.07,2.51,2.44,5.2,4.13,11.04,6.93,12.77,12,10.52,12.82-1.96,.72-4.96-3.24-5.29-6.22,0,.1-.96,5.08,5.25,9.31,2.54,1.73,3.67,2.48,4.55,3.81,.88,1.33,1.51,3.81,6.39,6.46,0,0,0,0,0,0,.14,.08,.28,.15,.42,.23,7.02,3.67,5.3,8.56-.02,1.85,0,0,1.01,4.22,5.38,5.51,3.05,.9,3.75,.77,6.66,4.39,2.91,3.62,4.33-.31,6.86,6.95,0,0-.18-4.7-3.94-8.18,.02,.06,.59,2.24-.72,1.2-1.33-1.06-1.94-4.91-6.88-9.5,.04,.05,1.15,1.41-.16,1.63-1.34,.23-1.7-5.98-8.83-9.53,.11,.1,4.34,3.98,2.17,3.86-6.12-.34-6.86-9.96-6.86-9.96,0,0-.05-5.29-7.83-10.6-4.78-3.26-7.74-5.29-8.9-9.27,0,0,0-.01,0-.01-.66-2.38-.24-3.79-2.35-6.07,.03,.06,1.48,2.86,.31,4.27-.26,.31-.72,.36-1.28,.18,0,0,0,0,0,0-2.03-.87-4.32-4.02-3.76-7.35,.55-3.33,.07-5.22-1.39-6.9,.03,.07,1.5,3.1,.42,5.82-.21,.54-.4,1.12-.52,1.75-.21,1.09-.22,2.29,.15,3.58Z"/><path class="cls-2" d="M131.12,183.33s-3.69-8.94-8.99-15.34c-5.31-6.4-14.68-13.42-14.68-13.42,0,0,14.31,14.41,23.67,28.76Z"/><path class="cls-2" d="M83.04,206.89c12.65,12.27,23.12,8.57,23.12,8.57,.91-.33,1.8-.72,2.7-1.12,6.97-3.1,11.42-11.27,11.42-11.27-5.87-2.55-7.65-4.83-7.65-4.83-19.65,16.64-28.25,7.09-28.25,7.09l-1.35,1.56Z"/><path class="cls-2" d="M88.3,217.65c2.07,1.51,10.72,7.43,19.16,7.82,9.68,.44,12.79,.89,23.3-16.57,0,0-6.72,.02-10.56-2.01,0,0,0,0,0,0,0,0,0,0,0,.01,0,0,0,0,0,0,0,0,0,.01-.01,.02,0,.01-.02,.03-.03,.04-3.68,5.91-11.46,10.12-11.46,10.12-5.18,2.41-11.84,2.98-19.44-2.19-.32,.96-.64,1.87-.95,2.75Z"/><path class="cls-2" d="M75.24,191.87s6.01,12.29,15.35,13.11h0c1.1,.16,2.27,.22,3.54,.19,7.45-.21,18.82-10.02,18.82-10.02,0,0,0,0,0,0-.22-.12-4.43-2.53-6.74-5.94-6.82,4.63-22.69,13.52-29.03,1.07l-1.94,1.59Z"/><path class="cls-2" d="M116.55,181.71s-.62-.94-3.12-2.55-8.68-6.24-6.66-13.47c0,0-7.96,3.85-1.98,11.7,0,0,4.78,2.34,11.75,4.32Z"/><path class="cls-2" d="M106.41,183.46s-31.19,19.11-32.76-13.56l2.11-.21s.75,21.73,26.8,8.04c0,0,2.56,4.41,3.84,5.73Z"/><path class="cls-2" d="M83.6,149.11s-15.77,20.24,17.37,21.87c0,0-.02-3.02,1.6-4.23,0,0-28.81-.54-17.69-16.82l-1.28-.82Z"/></g></g></g></g></svg>