<?xml version="1.0" encoding="UTF-8"?><svg id="Layer_1" xmlns="http://www.w3.org/2000/svg" viewBox="0 0 135 135"><g><rect x="75" y="90" width="15" height="15" transform="translate(-15 180) rotate(-90)"/><polygon points="45 75 45 60 60 60 60 45 75 45 75 60 135 60 135 75 75 75 75 90 60 90 60 75 45 75"/><rect x="75" y="30" width="15" height="15"/></g><g><rect x="0" y="60" width="15" height="15"/><rect x="15" y="45" width="15" height="15"/><rect x="30" y="30" width="15" height="15"/><rect x="45" y="15" width="15" height="15"/><rect x="60" width="15" height="15"/><rect x="60" y="120" width="15" height="15" transform="translate(135 255) rotate(-180)"/><rect x="45" y="105" width="15" height="15"/><rect x="30" y="90" width="15" height="15" transform="translate(-60 135) rotate(-90)"/><rect x="15" y="75" width="15" height="15" transform="translate(-60 105) rotate(-90)"/></g></svg>