<?xml version="1.0" encoding="UTF-8"?><svg id="Layer_1" xmlns="http://www.w3.org/2000/svg" viewBox="0 0 135 135"><g><rect x="90" y="30" width="15" height="15" transform="translate(135 -60) rotate(90)"/><polygon points="135 60 135 75 120 75 120 90 105 90 105 75 45 75 45 60 105 60 105 45 120 45 120 60 135 60"/><rect x="90" y="90" width="15" height="15" transform="translate(195 195) rotate(-180)"/></g><g><rect x="0" y="60" width="15" height="15"/><rect x="15" y="45" width="15" height="15"/><rect x="30" y="30" width="15" height="15"/><rect x="45" y="15" width="15" height="15"/><rect x="60" width="15" height="15"/><rect x="60" y="120" width="15" height="15" transform="translate(135 255) rotate(-180)"/><rect x="45" y="105" width="15" height="15"/><rect x="30" y="90" width="15" height="15" transform="translate(-60 135) rotate(-90)"/><rect x="15" y="75" width="15" height="15" transform="translate(-60 105) rotate(-90)"/></g></svg>